<svg width="1600" height="1084" xmlns="http://www.w3.org/2000/svg">
 <defs>
  <filter color-interpolation-filters="sRGB" filterUnits="userSpaceOnUse" height="499" width="452" y="1187" x="819" id="filter0_d_737_1402">
   <feGaussianBlur stdDeviation="6"/>
  </filter>
  <filter color-interpolation-filters="sRGB" filterUnits="userSpaceOnUse" height="60" width="356" y="1272" x="863" id="filter1_d_737_1402">
   <feGaussianBlur stdDeviation="3"/>
  </filter>
 </defs>
 <g>
  <title>background</title>
  <rect fill="none" id="canvas_background" height="1086" width="1602" y="-1" x="-1"/>
 </g>
 <g>
  <title>Layer 1</title>
  <path id="svg_1" fill="#EF2A82" d="m1600,245l-1600,0l0.000005,-54.244l1599.999995,-190.755863l0,244.999863z"/>
  <path id="svg_2" fill="#172755" d="m1600,1086l-1600.000122,0l0.000321,-882.279l1599.999801,-186.7209l0,1068.9999z"/>
  <g id="svg_3" opacity="0.07">
   <path id="svg_4" fill="#8794BA" d="m2429.54,657.483c-181.08,-264.177 -485.07,-437.483 -829.54,-437.483c-555.05,0 -1005,449.953 -1005,1005c0,80.75 9.524,159.28 27.509,234.52l511.781,-511.788c49.06,-49.06 128.61,-49.06 177.66,0l413.67,413.668l703.92,-703.917z"/>
   <path id="svg_5" fill="#8794BA" d="m2548.99,893.356l-734.54,734.534c-49.05,49.06 -128.6,49.06 -177.66,0l-413.67,-413.67l-500.778,500.79c171.921,307.27 500.528,514.99 877.658,514.99c555.05,0 1005,-449.95 1005,-1005c0,-116.21 -19.73,-227.813 -56.01,-331.644z"/>
  </g>
  <path id="svg_7" fill="#F9F0FF" d="m1277,1237l-472,0c-2.209,0 -4,1.63 -4,3.64l0,472.72c0,2.01 1.791,3.64 4,3.64l472,0c2.21,0 4,-1.63 4,-3.64l0,-472.72c0,-2.01 -1.79,-3.64 -4,-3.64z"/>
  <g id="svg_8" filter="url(#filter0_d_737_1402)">
   <rect id="svg_9" fill="white" rx="8" height="475" width="428" y="1195" x="827"/>
   <path id="svg_10" fill="#160637" d="m1009.61,1246.54c0,-0.31 -0.05,-0.58 -0.15,-0.83c-0.08,-0.25 -0.25,-0.47 -0.49,-0.67c-0.24,-0.22 -0.58,-0.42 -1.02,-0.63c-0.43,-0.2 -1,-0.41 -1.7,-0.63c-0.77,-0.25 -1.5,-0.53 -2.2,-0.84c-0.69,-0.32 -1.3,-0.68 -1.83,-1.09c-0.52,-0.42 -0.93,-0.91 -1.24,-1.47c-0.3,-0.55 -0.44,-1.2 -0.44,-1.93c0,-0.71 0.15,-1.36 0.46,-1.93c0.32,-0.59 0.75,-1.09 1.32,-1.5c0.56,-0.43 1.22,-0.75 1.99,-0.98c0.77,-0.22 1.62,-0.34 2.54,-0.34c1.26,0 2.36,0.23 3.29,0.68c0.94,0.46 1.67,1.08 2.18,1.87c0.53,0.79 0.79,1.69 0.79,2.7l-3.49,0c0,-0.5 -0.11,-0.93 -0.32,-1.31c-0.2,-0.38 -0.51,-0.68 -0.94,-0.9c-0.41,-0.22 -0.93,-0.33 -1.57,-0.33c-0.61,0 -1.11,0.09 -1.52,0.28c-0.41,0.18 -0.71,0.43 -0.91,0.74c-0.21,0.3 -0.31,0.65 -0.31,1.03c0,0.29 0.07,0.55 0.21,0.79c0.15,0.23 0.37,0.45 0.66,0.65c0.29,0.21 0.64,0.4 1.06,0.58c0.43,0.18 0.91,0.35 1.47,0.52c0.93,0.29 1.75,0.6 2.45,0.95c0.71,0.35 1.3,0.75 1.78,1.19c0.48,0.43 0.84,0.93 1.08,1.48c0.24,0.56 0.36,1.19 0.36,1.89c0,0.74 -0.14,1.41 -0.43,1.99c-0.29,0.59 -0.71,1.09 -1.26,1.49c-0.54,0.41 -1.2,0.72 -1.95,0.93c-0.76,0.21 -1.61,0.31 -2.55,0.31c-0.84,0 -1.67,-0.11 -2.49,-0.32c-0.82,-0.23 -1.57,-0.57 -2.24,-1.02c-0.66,-0.46 -1.2,-1.03 -1.59,-1.74c-0.4,-0.7 -0.6,-1.53 -0.6,-2.49l3.53,0c0,0.53 0.08,0.98 0.24,1.34c0.17,0.37 0.4,0.67 0.69,0.89c0.31,0.23 0.67,0.4 1.08,0.5c0.42,0.1 0.88,0.15 1.38,0.15c0.61,0 1.11,-0.09 1.5,-0.26c0.4,-0.17 0.69,-0.41 0.88,-0.71c0.2,-0.31 0.3,-0.65 0.3,-1.03zm9.25,-8.22l0,12.68l-3.38,0l0,-12.68l3.38,0zm-3.59,-3.3c0,-0.5 0.17,-0.9 0.51,-1.22c0.34,-0.32 0.81,-0.48 1.38,-0.48c0.57,0 1.03,0.16 1.38,0.48c0.35,0.32 0.52,0.72 0.52,1.22c0,0.49 -0.17,0.89 -0.52,1.21c-0.35,0.32 -0.81,0.48 -1.38,0.48c-0.57,0 -1.04,-0.16 -1.38,-0.48c-0.34,-0.32 -0.51,-0.72 -0.51,-1.21zm14.41,3.3l3.06,0l0,12.26c0,1.15 -0.26,2.13 -0.78,2.94c-0.5,0.81 -1.21,1.43 -2.13,1.84c-0.91,0.42 -1.97,0.63 -3.19,0.63c-0.53,0 -1.09,-0.07 -1.68,-0.21c-0.59,-0.14 -1.15,-0.36 -1.69,-0.66c-0.53,-0.29 -0.98,-0.67 -1.34,-1.12l1.49,-1.99c0.39,0.45 0.85,0.8 1.36,1.05c0.52,0.26 1.09,0.39 1.71,0.39c0.61,0 1.13,-0.11 1.55,-0.34c0.42,-0.22 0.75,-0.54 0.97,-0.97c0.23,-0.43 0.34,-0.94 0.34,-1.54l0,-9.35l0.33,-2.93zm-8.53,6.49l0,-0.24c0,-0.97 0.12,-1.85 0.35,-2.64c0.24,-0.8 0.58,-1.48 1.02,-2.05c0.44,-0.57 0.98,-1.01 1.62,-1.33c0.63,-0.31 1.34,-0.46 2.14,-0.46c0.84,0 1.55,0.15 2.12,0.46c0.57,0.32 1.04,0.76 1.41,1.34c0.37,0.57 0.65,1.25 0.85,2.03c0.22,0.77 0.38,1.62 0.5,2.54l0,0.54c-0.12,0.88 -0.3,1.7 -0.53,2.46c-0.24,0.76 -0.54,1.42 -0.93,1.99c-0.38,0.57 -0.86,1 -1.43,1.32c-0.56,0.31 -1.23,0.46 -2.01,0.46c-0.78,0 -1.49,-0.16 -2.12,-0.48c-0.63,-0.32 -1.16,-0.77 -1.61,-1.34c-0.44,-0.58 -0.79,-1.26 -1.03,-2.04c-0.23,-0.78 -0.35,-1.64 -0.35,-2.56zm3.37,-0.24l0,0.24c0,0.53 0.05,1.01 0.16,1.47c0.1,0.45 0.25,0.85 0.46,1.2c0.22,0.35 0.49,0.62 0.81,0.81c0.33,0.19 0.72,0.28 1.16,0.28c0.62,0 1.12,-0.12 1.51,-0.38c0.4,-0.27 0.69,-0.63 0.88,-1.09c0.2,-0.46 0.31,-0.99 0.34,-1.6l0,-1.53c-0.01,-0.49 -0.08,-0.93 -0.2,-1.33c-0.11,-0.39 -0.28,-0.73 -0.49,-1.02c-0.21,-0.28 -0.48,-0.5 -0.82,-0.65c-0.33,-0.16 -0.73,-0.24 -1.19,-0.24c-0.45,0 -0.84,0.11 -1.16,0.31c-0.32,0.19 -0.59,0.46 -0.81,0.81c-0.21,0.34 -0.37,0.75 -0.48,1.22c-0.11,0.46 -0.17,0.96 -0.17,1.5zm14.15,-3.54l0,9.97l-3.38,0l0,-12.68l3.17,0l0.21,2.71zm-0.49,3.18l-0.92,0c0,-0.93 0.12,-1.78 0.36,-2.53c0.25,-0.75 0.59,-1.4 1.02,-1.93c0.44,-0.54 0.96,-0.95 1.56,-1.23c0.61,-0.29 1.29,-0.43 2.04,-0.43c0.6,0 1.14,0.08 1.63,0.25c0.49,0.18 0.92,0.45 1.27,0.82c0.36,0.38 0.63,0.88 0.82,1.49c0.19,0.62 0.29,1.37 0.29,2.26l0,8.09l-3.4,0l0,-8.1c0,-0.56 -0.08,-1 -0.23,-1.31c-0.16,-0.31 -0.39,-0.53 -0.69,-0.66c-0.3,-0.13 -0.67,-0.2 -1.11,-0.2c-0.45,0 -0.84,0.09 -1.18,0.27c-0.33,0.18 -0.6,0.43 -0.82,0.75c-0.21,0.32 -0.37,0.68 -0.48,1.11c-0.11,0.42 -0.16,0.87 -0.16,1.35zm26.25,-10.27l3.5,0l0,11.27c0,1.31 -0.28,2.42 -0.84,3.32c-0.56,0.9 -1.33,1.57 -2.31,2.02c-0.98,0.46 -2.1,0.68 -3.38,0.68c-1.27,0 -2.4,-0.22 -3.4,-0.68c-0.98,-0.45 -1.75,-1.12 -2.32,-2.02c-0.55,-0.9 -0.83,-2.01 -0.83,-3.32l0,-11.27l3.52,0l0,11.27c0,0.77 0.12,1.39 0.36,1.88c0.24,0.48 0.59,0.84 1.04,1.06c0.46,0.23 1.01,0.34 1.63,0.34c0.64,0 1.19,-0.11 1.63,-0.34c0.45,-0.22 0.8,-0.58 1.03,-1.06c0.24,-0.49 0.37,-1.11 0.37,-1.88l0,-11.27zm9.56,6.82l0,15.12l-3.38,0l0,-17.56l3.13,0l0.25,2.44zm8.03,3.76l0,0.25c0,0.92 -0.11,1.77 -0.33,2.56c-0.21,0.79 -0.53,1.48 -0.94,2.06c-0.41,0.58 -0.93,1.04 -1.55,1.36c-0.61,0.32 -1.31,0.48 -2.11,0.48c-0.77,0 -1.44,-0.15 -2.01,-0.46c-0.57,-0.32 -1.05,-0.75 -1.44,-1.32c-0.39,-0.57 -0.69,-1.23 -0.93,-1.98c-0.23,-0.75 -0.41,-1.55 -0.54,-2.41l0,-0.65c0.13,-0.92 0.31,-1.76 0.54,-2.53c0.24,-0.77 0.54,-1.44 0.93,-2c0.39,-0.57 0.86,-1.01 1.43,-1.33c0.57,-0.31 1.23,-0.46 2,-0.46c0.81,0 1.51,0.15 2.12,0.45c0.62,0.31 1.13,0.75 1.55,1.32c0.42,0.57 0.74,1.25 0.95,2.03c0.22,0.79 0.33,1.67 0.33,2.63zm-3.39,0.25l0,-0.25c0,-0.54 -0.05,-1.04 -0.14,-1.49c-0.09,-0.46 -0.23,-0.86 -0.42,-1.21c-0.19,-0.34 -0.44,-0.61 -0.75,-0.79c-0.31,-0.2 -0.68,-0.3 -1.12,-0.3c-0.46,0 -0.85,0.08 -1.18,0.23c-0.32,0.15 -0.58,0.36 -0.79,0.64c-0.2,0.28 -0.35,0.62 -0.45,1.01c-0.1,0.39 -0.17,0.83 -0.19,1.32l0,1.63c0.04,0.58 0.15,1.1 0.33,1.56c0.18,0.45 0.46,0.81 0.83,1.08c0.37,0.26 0.87,0.4 1.48,0.4c0.44,0 0.82,-0.1 1.12,-0.3c0.31,-0.2 0.55,-0.48 0.74,-0.83c0.2,-0.35 0.33,-0.76 0.41,-1.22c0.09,-0.46 0.13,-0.95 0.13,-1.48z"/>
   <g id="svg_11" filter="url(#filter1_d_737_1402)">
    <path id="svg_12" fill="#722ED1" d="m1209,1275l-336,0c-2.209,0 -4,1.79 -4,4l0,40c0,2.21 1.791,4 4,4l336,0c2.21,0 4,-1.79 4,-4l0,-40c0,-2.21 -1.79,-4 -4,-4z"/>
   </g>
   <path id="svg_13" fill="white" d="m981.438,1301.07c0,-0.23 -0.037,-0.44 -0.11,-0.62c-0.068,-0.19 -0.19,-0.35 -0.367,-0.5c-0.177,-0.16 -0.427,-0.3 -0.75,-0.44c-0.318,-0.15 -0.724,-0.3 -1.219,-0.45c-0.541,-0.16 -1.041,-0.35 -1.5,-0.55c-0.453,-0.21 -0.849,-0.45 -1.187,-0.72c-0.339,-0.28 -0.602,-0.59 -0.789,-0.95c-0.188,-0.36 -0.282,-0.77 -0.282,-1.24c0,-0.46 0.097,-0.88 0.289,-1.26c0.198,-0.38 0.477,-0.71 0.836,-0.99c0.365,-0.28 0.795,-0.5 1.289,-0.65c0.495,-0.15 1.042,-0.23 1.641,-0.23c0.844,0 1.57,0.15 2.18,0.47c0.614,0.31 1.086,0.73 1.414,1.26c0.333,0.52 0.5,1.1 0.5,1.74l-1.945,0c0,-0.38 -0.081,-0.71 -0.243,-0.99c-0.156,-0.3 -0.396,-0.53 -0.718,-0.69c-0.318,-0.17 -0.722,-0.25 -1.211,-0.25c-0.464,0 -0.849,0.07 -1.157,0.21c-0.307,0.14 -0.536,0.33 -0.687,0.57c-0.151,0.24 -0.227,0.51 -0.227,0.81c0,0.22 0.05,0.41 0.149,0.59c0.099,0.17 0.25,0.33 0.453,0.48c0.203,0.15 0.458,0.29 0.765,0.42c0.308,0.13 0.67,0.25 1.086,0.37c0.631,0.19 1.18,0.4 1.649,0.63c0.469,0.22 0.859,0.48 1.172,0.76c0.312,0.29 0.547,0.61 0.703,0.98c0.156,0.36 0.234,0.77 0.234,1.22c0,0.48 -0.096,0.92 -0.289,1.3c-0.193,0.38 -0.469,0.71 -0.828,0.98c-0.354,0.26 -0.781,0.47 -1.281,0.62c-0.495,0.14 -1.047,0.21 -1.656,0.21c-0.547,0 -1.086,-0.08 -1.618,-0.22c-0.526,-0.15 -1.005,-0.37 -1.437,-0.67c-0.432,-0.3 -0.776,-0.67 -1.031,-1.12c-0.256,-0.45 -0.383,-0.98 -0.383,-1.59l1.961,0c0,0.37 0.062,0.69 0.187,0.95c0.13,0.26 0.31,0.47 0.539,0.64c0.229,0.16 0.495,0.28 0.797,0.36c0.307,0.08 0.636,0.11 0.985,0.11c0.458,0 0.841,-0.06 1.148,-0.19c0.312,-0.13 0.547,-0.31 0.703,-0.55c0.156,-0.23 0.235,-0.5 0.235,-0.81zm7.39,-5.52l0,1.37l-4.766,0l0,-1.37l4.766,0zm-3.39,-2.07l1.882,0l0,8.18c0,0.26 0.037,0.46 0.11,0.61c0.078,0.13 0.185,0.22 0.32,0.27c0.135,0.05 0.294,0.07 0.477,0.07c0.13,0 0.255,-0.01 0.375,-0.02c0.119,-0.02 0.216,-0.04 0.289,-0.05l0.007,1.44c-0.156,0.04 -0.338,0.09 -0.546,0.12c-0.204,0.04 -0.438,0.06 -0.704,0.06c-0.432,0 -0.815,-0.08 -1.148,-0.23c-0.333,-0.16 -0.594,-0.41 -0.781,-0.76c-0.188,-0.35 -0.281,-0.81 -0.281,-1.39l0,-8.3zm9.609,8.82l0,-4.03c0,-0.3 -0.055,-0.56 -0.164,-0.78c-0.11,-0.22 -0.276,-0.39 -0.5,-0.51c-0.219,-0.12 -0.495,-0.18 -0.828,-0.18c-0.308,0 -0.573,0.06 -0.797,0.16c-0.224,0.11 -0.399,0.25 -0.524,0.42c-0.125,0.18 -0.187,0.38 -0.187,0.6l-1.875,0c0,-0.33 0.081,-0.65 0.242,-0.96c0.162,-0.32 0.396,-0.6 0.703,-0.84c0.307,-0.25 0.675,-0.44 1.102,-0.58c0.427,-0.14 0.906,-0.21 1.437,-0.21c0.636,0 1.198,0.11 1.688,0.32c0.495,0.21 0.883,0.54 1.164,0.97c0.286,0.43 0.43,0.96 0.43,1.61l0,3.76c0,0.38 0.026,0.73 0.078,1.04c0.057,0.3 0.138,0.56 0.242,0.79l0,0.12l-1.93,0c-0.088,-0.2 -0.159,-0.46 -0.211,-0.77c-0.047,-0.32 -0.07,-0.63 -0.07,-0.93zm0.273,-3.44l0.016,1.16l-1.352,0c-0.349,0 -0.656,0.04 -0.922,0.1c-0.265,0.07 -0.486,0.16 -0.664,0.29c-0.177,0.12 -0.309,0.27 -0.398,0.45c-0.089,0.18 -0.133,0.38 -0.133,0.6c0,0.22 0.052,0.43 0.156,0.62c0.105,0.18 0.256,0.32 0.454,0.43c0.203,0.1 0.447,0.15 0.734,0.15c0.385,0 0.721,-0.07 1.008,-0.23c0.291,-0.16 0.521,-0.36 0.687,-0.59c0.167,-0.23 0.255,-0.45 0.266,-0.66l0.609,0.84c-0.062,0.21 -0.169,0.44 -0.32,0.68c-0.151,0.25 -0.349,0.48 -0.594,0.71c-0.239,0.21 -0.528,0.39 -0.867,0.54c-0.333,0.14 -0.719,0.21 -1.156,0.21c-0.552,0 -1.045,-0.11 -1.477,-0.33c-0.432,-0.23 -0.771,-0.53 -1.015,-0.9c-0.245,-0.38 -0.368,-0.81 -0.368,-1.29c0,-0.45 0.084,-0.84 0.25,-1.19c0.172,-0.35 0.422,-0.64 0.75,-0.87c0.334,-0.24 0.74,-0.41 1.219,-0.53c0.479,-0.13 1.026,-0.19 1.641,-0.19l1.476,0zm5.48,-1.7l0,6.84l-1.886,0l0,-8.45l1.796,0l0.09,1.61zm2.58,-1.67l-0.01,1.75c-0.12,-0.02 -0.24,-0.03 -0.38,-0.04c-0.13,-0.02 -0.26,-0.02 -0.39,-0.02c-0.32,0 -0.61,0.05 -0.85,0.14c-0.24,0.09 -0.45,0.22 -0.62,0.39c-0.16,0.17 -0.28,0.37 -0.37,0.61c-0.09,0.24 -0.14,0.51 -0.16,0.8l-0.43,0.04c0,-0.54 0.05,-1.03 0.16,-1.48c0.1,-0.45 0.26,-0.85 0.47,-1.2c0.21,-0.34 0.48,-0.61 0.79,-0.8c0.33,-0.19 0.7,-0.29 1.12,-0.29c0.12,0 0.24,0.01 0.37,0.03c0.13,0.02 0.24,0.05 0.3,0.07zm5.45,0.06l0,1.37l-4.77,0l0,-1.37l4.77,0zm-3.39,-2.07l1.88,0l0,8.18c0,0.26 0.04,0.46 0.11,0.61c0.08,0.13 0.18,0.22 0.32,0.27c0.14,0.05 0.29,0.07 0.48,0.07c0.13,0 0.25,-0.01 0.37,-0.02c0.12,-0.02 0.22,-0.04 0.29,-0.05l0.01,1.44c-0.16,0.04 -0.34,0.09 -0.55,0.12c-0.2,0.04 -0.44,0.06 -0.7,0.06c-0.43,0 -0.82,-0.08 -1.15,-0.23c-0.33,-0.16 -0.59,-0.41 -0.78,-0.76c-0.19,-0.35 -0.28,-0.81 -0.28,-1.39l0,-8.3zm11.28,9.6l2.3,-7.53l2.01,0l-3.39,9.74c-0.08,0.21 -0.18,0.43 -0.3,0.68c-0.13,0.24 -0.29,0.48 -0.5,0.69c-0.19,0.23 -0.44,0.41 -0.74,0.54c-0.3,0.14 -0.65,0.21 -1.08,0.21c-0.16,0 -0.32,-0.01 -0.48,-0.04c-0.15,-0.03 -0.3,-0.06 -0.43,-0.09l-0.01,-1.44c0.05,0.01 0.12,0.01 0.19,0.02c0.08,0 0.14,0.01 0.19,0.01c0.31,0 0.57,-0.04 0.78,-0.12c0.21,-0.07 0.38,-0.19 0.51,-0.36c0.13,-0.17 0.25,-0.39 0.34,-0.67l0.61,-1.64zm-1.3,-7.53l2.01,6.33l0.34,1.98l-1.31,0.34l-3.07,-8.65l2.03,0zm6.2,4.32l0,-0.18c0,-0.61 0.09,-1.18 0.27,-1.7c0.18,-0.52 0.43,-0.98 0.77,-1.37c0.33,-0.39 0.75,-0.69 1.23,-0.9c0.49,-0.22 1.04,-0.33 1.66,-0.33c0.62,0 1.17,0.11 1.65,0.33c0.49,0.21 0.91,0.51 1.25,0.9c0.33,0.39 0.59,0.85 0.77,1.37c0.18,0.52 0.26,1.09 0.26,1.7l0,0.18c0,0.61 -0.08,1.17 -0.26,1.69c-0.18,0.52 -0.44,0.98 -0.77,1.37c-0.34,0.39 -0.75,0.69 -1.24,0.91c-0.48,0.21 -1.03,0.32 -1.65,0.32c-0.62,0 -1.17,-0.11 -1.66,-0.32c-0.49,-0.22 -0.9,-0.52 -1.24,-0.91c-0.33,-0.39 -0.59,-0.85 -0.77,-1.37c-0.18,-0.52 -0.27,-1.08 -0.27,-1.69zm1.89,-0.18l0,0.18c0,0.38 0.04,0.74 0.11,1.08c0.08,0.33 0.21,0.63 0.37,0.89c0.17,0.25 0.38,0.45 0.64,0.6c0.26,0.14 0.57,0.22 0.93,0.22c0.35,0 0.65,-0.08 0.91,-0.22c0.26,-0.15 0.47,-0.35 0.64,-0.6c0.17,-0.26 0.29,-0.56 0.37,-0.89c0.08,-0.34 0.12,-0.7 0.12,-1.08l0,-0.18c0,-0.38 -0.04,-0.73 -0.12,-1.07c-0.08,-0.33 -0.21,-0.63 -0.38,-0.89c-0.17,-0.26 -0.38,-0.47 -0.64,-0.61c-0.25,-0.15 -0.56,-0.23 -0.91,-0.23c-0.36,0 -0.66,0.08 -0.93,0.23c-0.25,0.14 -0.46,0.35 -0.63,0.61c-0.16,0.26 -0.29,0.56 -0.37,0.89c-0.07,0.34 -0.11,0.69 -0.11,1.07zm12.64,2.32l0,-6.46l1.89,0l0,8.45l-1.78,0l-0.11,-1.99zm0.26,-1.76l0.64,-0.02c0,0.57 -0.07,1.1 -0.19,1.57c-0.13,0.48 -0.32,0.89 -0.58,1.25c-0.26,0.35 -0.59,0.62 -1,0.82c-0.4,0.19 -0.89,0.29 -1.46,0.29c-0.41,0 -0.79,-0.06 -1.13,-0.18c-0.35,-0.12 -0.64,-0.31 -0.89,-0.56c-0.25,-0.25 -0.44,-0.57 -0.57,-0.97c-0.14,-0.41 -0.21,-0.88 -0.21,-1.44l0,-5.46l1.89,0l0,5.47c0,0.31 0.03,0.57 0.11,0.78c0.07,0.2 0.17,0.36 0.29,0.49c0.13,0.12 0.27,0.21 0.44,0.26c0.17,0.06 0.34,0.08 0.53,0.08c0.54,0 0.96,-0.1 1.27,-0.31c0.31,-0.21 0.53,-0.5 0.66,-0.86c0.14,-0.36 0.2,-0.76 0.2,-1.21zm5.45,-3.09l0,6.84l-1.88,0l0,-8.45l1.79,0l0.09,1.61zm2.59,-1.67l-0.02,1.75c-0.11,-0.02 -0.24,-0.03 -0.38,-0.04c-0.13,-0.02 -0.26,-0.02 -0.39,-0.02c-0.32,0 -0.6,0.05 -0.85,0.14c-0.24,0.09 -0.45,0.22 -0.61,0.39c-0.17,0.17 -0.29,0.37 -0.38,0.61c-0.09,0.24 -0.14,0.51 -0.16,0.8l-0.43,0.04c0,-0.54 0.06,-1.03 0.16,-1.48c0.1,-0.45 0.26,-0.85 0.47,-1.2c0.21,-0.34 0.48,-0.61 0.8,-0.8c0.32,-0.19 0.69,-0.29 1.11,-0.29c0.12,0 0.24,0.01 0.37,0.03c0.14,0.02 0.24,0.05 0.31,0.07zm7.71,8.51l-1.89,0l0,-9.27c0,-0.63 0.12,-1.15 0.35,-1.58c0.24,-0.43 0.59,-0.76 1.03,-0.98c0.44,-0.22 0.96,-0.33 1.57,-0.33c0.19,0 0.37,0.01 0.55,0.04c0.19,0.02 0.36,0.05 0.53,0.1l-0.04,1.45c-0.11,-0.03 -0.22,-0.04 -0.35,-0.05c-0.12,-0.02 -0.25,-0.02 -0.39,-0.02c-0.28,0 -0.53,0.05 -0.74,0.16c-0.2,0.11 -0.36,0.26 -0.47,0.46c-0.1,0.21 -0.15,0.46 -0.15,0.75l0,9.27zm1.74,-8.45l0,1.37l-4.92,0l0,-1.37l4.92,0zm3.26,1.61l0,6.84l-1.89,0l0,-8.45l1.8,0l0.09,1.61zm2.58,-1.67l-0.01,1.75c-0.12,-0.02 -0.24,-0.03 -0.38,-0.04c-0.13,-0.02 -0.26,-0.02 -0.39,-0.02c-0.32,0 -0.61,0.05 -0.85,0.14c-0.25,0.09 -0.45,0.22 -0.62,0.39c-0.16,0.17 -0.28,0.37 -0.37,0.61c-0.09,0.24 -0.14,0.51 -0.16,0.8l-0.43,0.04c0,-0.54 0.05,-1.03 0.16,-1.48c0.1,-0.45 0.26,-0.85 0.47,-1.2c0.21,-0.34 0.48,-0.61 0.79,-0.8c0.33,-0.19 0.7,-0.29 1.12,-0.29c0.11,0 0.24,0.01 0.37,0.03c0.13,0.02 0.23,0.05 0.3,0.07zm4.75,8.67c-0.62,0 -1.19,-0.11 -1.69,-0.31c-0.5,-0.21 -0.93,-0.5 -1.28,-0.87c-0.35,-0.37 -0.62,-0.8 -0.81,-1.3c-0.19,-0.5 -0.28,-1.04 -0.28,-1.62l0,-0.31c0,-0.66 0.1,-1.26 0.29,-1.8c0.19,-0.53 0.46,-0.99 0.8,-1.37c0.35,-0.39 0.75,-0.68 1.22,-0.88c0.47,-0.21 0.98,-0.31 1.53,-0.31c0.6,0 1.13,0.1 1.58,0.31c0.45,0.2 0.83,0.48 1.13,0.85c0.3,0.37 0.52,0.8 0.67,1.31c0.15,0.5 0.23,1.06 0.23,1.67l0,0.81l-6.54,0l0,-1.36l4.68,0l0,-0.14c-0.01,-0.34 -0.08,-0.66 -0.21,-0.96c-0.12,-0.29 -0.3,-0.53 -0.55,-0.72c-0.25,-0.18 -0.59,-0.27 -1,-0.27c-0.31,0 -0.59,0.07 -0.84,0.2c-0.24,0.13 -0.44,0.32 -0.6,0.57c-0.16,0.25 -0.29,0.56 -0.37,0.91c-0.09,0.35 -0.13,0.74 -0.13,1.18l0,0.31c0,0.37 0.05,0.72 0.15,1.03c0.1,0.32 0.25,0.59 0.45,0.82c0.2,0.24 0.44,0.42 0.72,0.56c0.28,0.13 0.6,0.19 0.96,0.19c0.45,0 0.86,-0.09 1.21,-0.27c0.36,-0.18 0.66,-0.44 0.92,-0.77l1,0.96c-0.19,0.26 -0.42,0.52 -0.71,0.76c-0.3,0.24 -0.65,0.44 -1.07,0.59c-0.42,0.15 -0.91,0.23 -1.46,0.23zm8.58,0c-0.62,0 -1.19,-0.11 -1.69,-0.31c-0.5,-0.21 -0.93,-0.5 -1.29,-0.87c-0.35,-0.37 -0.61,-0.8 -0.8,-1.3c-0.19,-0.5 -0.28,-1.04 -0.28,-1.62l0,-0.31c0,-0.66 0.09,-1.26 0.29,-1.8c0.19,-0.53 0.46,-0.99 0.8,-1.37c0.35,-0.39 0.75,-0.68 1.22,-0.88c0.47,-0.21 0.98,-0.31 1.52,-0.31c0.61,0 1.14,0.1 1.59,0.31c0.45,0.2 0.83,0.48 1.12,0.85c0.31,0.37 0.53,0.8 0.68,1.31c0.15,0.5 0.22,1.06 0.22,1.67l0,0.81l-6.53,0l0,-1.36l4.67,0l0,-0.14c-0.01,-0.34 -0.07,-0.66 -0.2,-0.96c-0.12,-0.29 -0.3,-0.53 -0.55,-0.72c-0.25,-0.18 -0.59,-0.27 -1,-0.27c-0.32,0 -0.6,0.07 -0.84,0.2c-0.24,0.13 -0.44,0.32 -0.6,0.57c-0.16,0.25 -0.29,0.56 -0.38,0.91c-0.08,0.35 -0.12,0.74 -0.12,1.18l0,0.31c0,0.37 0.05,0.72 0.15,1.03c0.1,0.32 0.25,0.59 0.45,0.82c0.2,0.24 0.44,0.42 0.72,0.56c0.28,0.13 0.6,0.19 0.96,0.19c0.45,0 0.86,-0.09 1.21,-0.27c0.35,-0.18 0.66,-0.44 0.92,-0.77l0.99,0.96c-0.18,0.26 -0.41,0.52 -0.71,0.76c-0.29,0.24 -0.64,0.44 -1.07,0.59c-0.41,0.15 -0.9,0.23 -1.45,0.23zm12.71,-8.61l0,1.37l-4.76,0l0,-1.37l4.76,0zm-3.39,-2.07l1.88,0l0,8.18c0,0.26 0.04,0.46 0.11,0.61c0.08,0.13 0.19,0.22 0.32,0.27c0.14,0.05 0.3,0.07 0.48,0.07c0.13,0 0.25,-0.01 0.37,-0.02c0.12,-0.02 0.22,-0.04 0.29,-0.05l0.01,1.44c-0.15,0.04 -0.34,0.09 -0.55,0.12c-0.2,0.04 -0.43,0.06 -0.7,0.06c-0.43,0 -0.81,-0.08 -1.15,-0.23c-0.33,-0.16 -0.59,-0.41 -0.78,-0.76c-0.19,-0.35 -0.28,-0.81 -0.28,-1.39l0,-8.3zm6.73,3.68l0,6.84l-1.88,0l0,-8.45l1.8,0l0.08,1.61zm2.59,-1.67l-0.01,1.75c-0.12,-0.02 -0.24,-0.03 -0.38,-0.04c-0.13,-0.02 -0.26,-0.02 -0.39,-0.02c-0.32,0 -0.61,0.05 -0.85,0.14c-0.25,0.09 -0.45,0.22 -0.62,0.39c-0.16,0.17 -0.29,0.37 -0.37,0.61c-0.09,0.24 -0.14,0.51 -0.16,0.8l-0.43,0.04c0,-0.54 0.05,-1.03 0.16,-1.48c0.1,-0.45 0.26,-0.85 0.46,-1.2c0.22,-0.34 0.48,-0.61 0.8,-0.8c0.32,-0.19 0.7,-0.29 1.12,-0.29c0.11,0 0.24,0.01 0.37,0.03c0.13,0.02 0.23,0.05 0.3,0.07zm3.2,0.06l0,8.45l-1.89,0l0,-8.45l1.89,0zm-2.02,-2.22c0,-0.29 0.09,-0.53 0.28,-0.71c0.19,-0.2 0.46,-0.29 0.8,-0.29c0.33,0 0.6,0.09 0.79,0.29c0.19,0.18 0.29,0.42 0.29,0.71c0,0.28 -0.1,0.51 -0.29,0.7c-0.19,0.19 -0.46,0.28 -0.79,0.28c-0.34,0 -0.61,-0.09 -0.8,-0.28c-0.19,-0.19 -0.28,-0.42 -0.28,-0.7zm8.84,8.97l0,-4.03c0,-0.3 -0.05,-0.56 -0.16,-0.78c-0.11,-0.22 -0.28,-0.39 -0.5,-0.51c-0.22,-0.12 -0.49,-0.18 -0.83,-0.18c-0.31,0 -0.57,0.06 -0.79,0.16c-0.23,0.11 -0.4,0.25 -0.53,0.42c-0.12,0.18 -0.19,0.38 -0.19,0.6l-1.87,0c0,-0.33 0.08,-0.65 0.24,-0.96c0.16,-0.32 0.4,-0.6 0.7,-0.84c0.31,-0.25 0.68,-0.44 1.11,-0.58c0.42,-0.14 0.9,-0.21 1.43,-0.21c0.64,0 1.2,0.11 1.69,0.32c0.5,0.21 0.88,0.54 1.17,0.97c0.28,0.43 0.42,0.96 0.42,1.61l0,3.76c0,0.38 0.03,0.73 0.08,1.04c0.06,0.3 0.14,0.56 0.25,0.79l0,0.12l-1.93,0c-0.09,-0.2 -0.16,-0.46 -0.22,-0.77c-0.04,-0.32 -0.07,-0.63 -0.07,-0.93zm0.28,-3.44l0.01,1.16l-1.35,0c-0.35,0 -0.65,0.04 -0.92,0.1c-0.27,0.07 -0.49,0.16 -0.66,0.29c-0.18,0.12 -0.31,0.27 -0.4,0.45c-0.09,0.18 -0.14,0.38 -0.14,0.6c0,0.22 0.06,0.43 0.16,0.62c0.11,0.18 0.26,0.32 0.45,0.43c0.21,0.1 0.45,0.15 0.74,0.15c0.38,0 0.72,-0.07 1.01,-0.23c0.29,-0.16 0.52,-0.36 0.68,-0.59c0.17,-0.23 0.26,-0.45 0.27,-0.66l0.61,0.84c-0.06,0.21 -0.17,0.44 -0.32,0.68c-0.15,0.25 -0.35,0.48 -0.6,0.71c-0.23,0.21 -0.52,0.39 -0.86,0.54c-0.34,0.14 -0.72,0.21 -1.16,0.21c-0.55,0 -1.04,-0.11 -1.48,-0.33c-0.43,-0.23 -0.77,-0.53 -1.01,-0.9c-0.25,-0.38 -0.37,-0.81 -0.37,-1.29c0,-0.45 0.09,-0.84 0.25,-1.19c0.17,-0.35 0.42,-0.64 0.75,-0.87c0.34,-0.24 0.74,-0.41 1.22,-0.53c0.48,-0.13 1.03,-0.19 1.64,-0.19l1.48,0zm5.6,-6.86l0,12l-1.89,0l0,-12l1.89,0z"/>
   <path id="svg_14" fill="#8989A2" d="m885.242,1358.62l2.641,5.43l2.64,-5.43l2.172,0l-3.828,7.19l0,4.19l-1.976,0l0,-4.19l-3.829,-7.19l2.18,0zm7.633,7.25l0,-0.18c0,-0.61 0.089,-1.18 0.266,-1.7c0.177,-0.52 0.432,-0.98 0.765,-1.37c0.339,-0.39 0.75,-0.69 1.235,-0.9c0.489,-0.22 1.041,-0.33 1.656,-0.33c0.62,0 1.172,0.11 1.656,0.33c0.49,0.21 0.904,0.51 1.242,0.9c0.339,0.39 0.597,0.85 0.774,1.37c0.177,0.52 0.265,1.09 0.265,1.7l0,0.18c0,0.61 -0.088,1.17 -0.265,1.69c-0.177,0.52 -0.435,0.98 -0.774,1.37c-0.338,0.39 -0.75,0.69 -1.234,0.91c-0.484,0.21 -1.034,0.32 -1.649,0.32c-0.619,0 -1.174,-0.11 -1.664,-0.32c-0.484,-0.22 -0.895,-0.52 -1.234,-0.91c-0.338,-0.39 -0.596,-0.85 -0.773,-1.37c-0.177,-0.52 -0.266,-1.08 -0.266,-1.69zm1.883,-0.18l0,0.18c0,0.38 0.039,0.74 0.117,1.08c0.078,0.33 0.201,0.63 0.367,0.89c0.167,0.25 0.38,0.45 0.641,0.6c0.26,0.14 0.57,0.22 0.929,0.22c0.349,0 0.652,-0.08 0.907,-0.22c0.26,-0.15 0.474,-0.35 0.64,-0.6c0.167,-0.26 0.289,-0.56 0.368,-0.89c0.083,-0.34 0.125,-0.7 0.125,-1.08l0,-0.18c0,-0.38 -0.042,-0.73 -0.125,-1.07c-0.079,-0.33 -0.204,-0.63 -0.375,-0.89c-0.167,-0.26 -0.381,-0.47 -0.641,-0.61c-0.255,-0.15 -0.56,-0.23 -0.914,-0.23c-0.354,0 -0.662,0.08 -0.922,0.23c-0.255,0.14 -0.466,0.35 -0.633,0.61c-0.166,0.26 -0.289,0.56 -0.367,0.89c-0.078,0.34 -0.117,0.69 -0.117,1.07zm12.64,2.32l0,-6.46l1.891,0l0,8.45l-1.781,0l-0.11,-1.99zm0.266,-1.76l0.633,-0.02c0,0.57 -0.063,1.1 -0.188,1.57c-0.125,0.48 -0.317,0.89 -0.578,1.25c-0.26,0.35 -0.593,0.62 -1,0.82c-0.406,0.19 -0.893,0.29 -1.461,0.29c-0.411,0 -0.789,-0.06 -1.132,-0.18c-0.344,-0.12 -0.641,-0.31 -0.891,-0.56c-0.245,-0.25 -0.435,-0.57 -0.57,-0.97c-0.136,-0.41 -0.204,-0.88 -0.204,-1.44l0,-5.46l1.883,0l0,5.47c0,0.31 0.037,0.57 0.11,0.78c0.073,0.2 0.172,0.36 0.296,0.49c0.126,0.12 0.271,0.21 0.438,0.26c0.167,0.06 0.344,0.08 0.531,0.08c0.537,0 0.959,-0.1 1.266,-0.31c0.312,-0.21 0.534,-0.5 0.664,-0.86c0.135,-0.36 0.203,-0.76 0.203,-1.21zm5.445,-3.09l0,6.84l-1.882,0l0,-8.45l1.796,0l0.086,1.61zm2.586,-1.67l-0.015,1.75c-0.115,-0.02 -0.24,-0.03 -0.375,-0.04c-0.131,-0.02 -0.261,-0.02 -0.391,-0.02c-0.323,0 -0.607,0.05 -0.852,0.14c-0.244,0.09 -0.45,0.22 -0.617,0.39c-0.161,0.17 -0.286,0.37 -0.375,0.61c-0.088,0.24 -0.14,0.51 -0.156,0.8l-0.43,0.04c0,-0.54 0.052,-1.03 0.157,-1.48c0.104,-0.45 0.26,-0.85 0.468,-1.2c0.214,-0.34 0.48,-0.61 0.797,-0.8c0.323,-0.19 0.696,-0.29 1.117,-0.29c0.115,0 0.237,0.01 0.368,0.03c0.135,0.02 0.237,0.05 0.304,0.07zm7.055,1.68l0,10.08l-1.883,0l0,-11.7l1.735,0l0.148,1.62zm5.508,2.53l0,0.16c0,0.61 -0.073,1.18 -0.219,1.71c-0.141,0.52 -0.351,0.98 -0.633,1.37c-0.276,0.38 -0.617,0.68 -1.023,0.9c-0.406,0.21 -0.875,0.32 -1.406,0.32c-0.526,0 -0.987,-0.1 -1.383,-0.29c-0.391,-0.2 -0.722,-0.48 -0.992,-0.84c-0.271,-0.36 -0.49,-0.78 -0.657,-1.26c-0.161,-0.49 -0.276,-1.03 -0.343,-1.61l0,-0.64c0.067,-0.62 0.182,-1.18 0.343,-1.68c0.167,-0.51 0.386,-0.94 0.657,-1.31c0.27,-0.36 0.601,-0.64 0.992,-0.84c0.39,-0.2 0.846,-0.3 1.367,-0.3c0.531,0 1.003,0.1 1.414,0.31c0.411,0.21 0.758,0.5 1.039,0.88c0.281,0.37 0.492,0.83 0.633,1.36c0.141,0.52 0.211,1.11 0.211,1.76zm-1.883,0.16l0,-0.16c0,-0.4 -0.036,-0.76 -0.109,-1.09c-0.073,-0.34 -0.188,-0.64 -0.344,-0.89c-0.156,-0.26 -0.357,-0.45 -0.602,-0.6c-0.239,-0.14 -0.528,-0.21 -0.867,-0.21c-0.333,0 -0.62,0.05 -0.859,0.17c-0.24,0.11 -0.44,0.26 -0.602,0.46c-0.161,0.2 -0.286,0.43 -0.375,0.69c-0.088,0.26 -0.151,0.55 -0.187,0.86l0,1.51c0.062,0.38 0.169,0.72 0.32,1.03c0.151,0.32 0.365,0.57 0.641,0.75c0.281,0.19 0.64,0.28 1.078,0.28c0.338,0 0.627,-0.08 0.867,-0.22c0.24,-0.15 0.435,-0.35 0.586,-0.6c0.156,-0.26 0.271,-0.56 0.344,-0.9c0.073,-0.34 0.109,-0.7 0.109,-1.08zm5.375,-2.7l0,6.84l-1.883,0l0,-8.45l1.797,0l0.086,1.61zm2.586,-1.67l-0.016,1.75c-0.114,-0.02 -0.239,-0.03 -0.375,-0.04c-0.13,-0.02 -0.26,-0.02 -0.39,-0.02c-0.323,0 -0.607,0.05 -0.852,0.14c-0.245,0.09 -0.45,0.22 -0.617,0.39c-0.162,0.17 -0.287,0.37 -0.375,0.61c-0.089,0.24 -0.141,0.51 -0.156,0.8l-0.43,0.04c0,-0.54 0.052,-1.03 0.156,-1.48c0.104,-0.45 0.261,-0.85 0.469,-1.2c0.214,-0.34 0.479,-0.61 0.797,-0.8c0.323,-0.19 0.695,-0.29 1.117,-0.29c0.115,0 0.237,0.01 0.367,0.03c0.136,0.02 0.237,0.05 0.305,0.07zm3.195,0.06l0,8.45l-1.89,0l0,-8.45l1.89,0zm-2.015,-2.22c0,-0.29 0.093,-0.53 0.281,-0.71c0.193,-0.2 0.458,-0.29 0.797,-0.29c0.333,0 0.596,0.09 0.789,0.29c0.193,0.18 0.289,0.42 0.289,0.71c0,0.28 -0.096,0.51 -0.289,0.7c-0.193,0.19 -0.456,0.28 -0.789,0.28c-0.339,0 -0.604,-0.09 -0.797,-0.28c-0.188,-0.19 -0.281,-0.42 -0.281,-0.7zm5.961,3.94l0,6.73l-1.883,0l0,-8.45l1.773,0l0.11,1.72zm-0.305,2.19l-0.641,-0.01c0,-0.58 0.073,-1.12 0.219,-1.61c0.146,-0.5 0.359,-0.93 0.641,-1.29c0.281,-0.37 0.63,-0.66 1.047,-0.85c0.421,-0.21 0.908,-0.31 1.46,-0.31c0.386,0 0.737,0.06 1.055,0.17c0.323,0.11 0.602,0.29 0.836,0.53c0.24,0.24 0.422,0.54 0.547,0.92c0.13,0.37 0.195,0.83 0.195,1.36l0,5.63l-1.883,0l0,-5.47c0,-0.41 -0.062,-0.73 -0.187,-0.97c-0.12,-0.23 -0.294,-0.4 -0.523,-0.5c-0.224,-0.1 -0.493,-0.15 -0.805,-0.15c-0.354,0 -0.656,0.06 -0.906,0.2c-0.245,0.13 -0.446,0.32 -0.602,0.55c-0.156,0.24 -0.271,0.51 -0.344,0.82c-0.073,0.3 -0.109,0.63 -0.109,0.98zm5.242,-0.5l-0.883,0.2c0,-0.51 0.071,-1 0.211,-1.45c0.146,-0.46 0.357,-0.86 0.633,-1.2c0.281,-0.35 0.628,-0.62 1.039,-0.82c0.412,-0.2 0.883,-0.3 1.414,-0.3c0.432,0 0.818,0.06 1.156,0.18c0.344,0.11 0.636,0.3 0.875,0.55c0.24,0.25 0.422,0.57 0.547,0.97c0.125,0.4 0.188,0.88 0.188,1.44l0,5.47l-1.891,0l0,-5.48c0,-0.42 -0.062,-0.75 -0.187,-0.99c-0.12,-0.23 -0.292,-0.39 -0.516,-0.48c-0.224,-0.1 -0.492,-0.14 -0.805,-0.14c-0.291,0 -0.549,0.05 -0.773,0.16c-0.219,0.1 -0.404,0.25 -0.555,0.45c-0.151,0.18 -0.265,0.4 -0.344,0.64c-0.072,0.25 -0.109,0.51 -0.109,0.8zm11.883,3.34l0,-4.03c0,-0.3 -0.055,-0.56 -0.164,-0.78c-0.11,-0.22 -0.276,-0.39 -0.5,-0.51c-0.219,-0.12 -0.495,-0.18 -0.828,-0.18c-0.308,0 -0.573,0.06 -0.797,0.16c-0.224,0.11 -0.399,0.25 -0.524,0.42c-0.125,0.18 -0.187,0.38 -0.187,0.6l-1.875,0c0,-0.33 0.081,-0.65 0.242,-0.96c0.162,-0.32 0.396,-0.6 0.703,-0.84c0.307,-0.25 0.675,-0.44 1.102,-0.58c0.427,-0.14 0.906,-0.21 1.437,-0.21c0.636,0 1.198,0.11 1.688,0.32c0.495,0.21 0.883,0.54 1.164,0.97c0.286,0.43 0.43,0.96 0.43,1.61l0,3.76c0,0.38 0.026,0.73 0.078,1.04c0.057,0.3 0.138,0.56 0.242,0.79l0,0.12l-1.93,0c-0.088,-0.2 -0.159,-0.46 -0.211,-0.77c-0.047,-0.32 -0.07,-0.63 -0.07,-0.93zm0.273,-3.44l0.016,1.16l-1.352,0c-0.349,0 -0.656,0.04 -0.922,0.1c-0.265,0.07 -0.486,0.16 -0.664,0.29c-0.177,0.12 -0.309,0.27 -0.398,0.45c-0.089,0.18 -0.133,0.38 -0.133,0.6c0,0.22 0.052,0.43 0.156,0.62c0.105,0.18 0.256,0.32 0.454,0.43c0.203,0.1 0.447,0.15 0.734,0.15c0.385,0 0.721,-0.07 1.008,-0.23c0.291,-0.16 0.521,-0.36 0.687,-0.59c0.167,-0.23 0.255,-0.45 0.266,-0.66l0.609,0.84c-0.062,0.21 -0.169,0.44 -0.32,0.68c-0.151,0.25 -0.349,0.48 -0.594,0.71c-0.239,0.21 -0.528,0.39 -0.867,0.54c-0.333,0.14 -0.719,0.21 -1.156,0.21c-0.552,0 -1.045,-0.11 -1.477,-0.33c-0.432,-0.23 -0.771,-0.53 -1.015,-0.9c-0.245,-0.38 -0.368,-0.81 -0.368,-1.29c0,-0.45 0.084,-0.84 0.25,-1.19c0.172,-0.35 0.422,-0.64 0.75,-0.87c0.334,-0.24 0.74,-0.41 1.219,-0.53c0.479,-0.13 1.026,-0.19 1.641,-0.19l1.476,0zm5.477,-1.7l0,6.84l-1.883,0l0,-8.45l1.797,0l0.086,1.61zm2.586,-1.67l-0.016,1.75c-0.114,-0.02 -0.239,-0.03 -0.375,-0.04c-0.13,-0.02 -0.26,-0.02 -0.39,-0.02c-0.323,0 -0.607,0.05 -0.852,0.14c-0.245,0.09 -0.451,0.22 -0.617,0.39c-0.162,0.17 -0.287,0.37 -0.375,0.61c-0.089,0.24 -0.141,0.51 -0.156,0.8l-0.43,0.04c0,-0.54 0.052,-1.03 0.156,-1.48c0.104,-0.45 0.261,-0.85 0.469,-1.2c0.213,-0.34 0.479,-0.61 0.797,-0.8c0.323,-0.19 0.695,-0.29 1.117,-0.29c0.115,0 0.237,0.01 0.367,0.03c0.136,0.02 0.237,0.05 0.305,0.07zm3.773,7.59l2.297,-7.53l2.016,0l-3.391,9.74c-0.078,0.21 -0.18,0.43 -0.305,0.68c-0.125,0.24 -0.289,0.48 -0.492,0.69c-0.198,0.23 -0.445,0.41 -0.742,0.54c-0.297,0.14 -0.656,0.21 -1.078,0.21c-0.167,0 -0.328,-0.01 -0.484,-0.04c-0.151,-0.03 -0.295,-0.06 -0.43,-0.09l-0.008,-1.44c0.052,0.01 0.115,0.01 0.188,0.02c0.078,0 0.14,0.01 0.187,0.01c0.313,0 0.573,-0.04 0.781,-0.12c0.209,-0.07 0.378,-0.19 0.508,-0.36c0.136,-0.17 0.25,-0.39 0.344,-0.67l0.609,-1.64zm-1.297,-7.53l2.008,6.33l0.336,1.98l-1.305,0.34l-3.07,-8.65l2.031,0zm14.399,8.61c-0.625,0 -1.19,-0.11 -1.696,-0.31c-0.5,-0.21 -0.927,-0.5 -1.281,-0.87c-0.349,-0.37 -0.617,-0.8 -0.804,-1.3c-0.188,-0.5 -0.282,-1.04 -0.282,-1.62l0,-0.31c0,-0.66 0.097,-1.26 0.289,-1.8c0.193,-0.53 0.461,-0.99 0.805,-1.37c0.344,-0.39 0.75,-0.68 1.219,-0.88c0.469,-0.21 0.976,-0.31 1.523,-0.31c0.604,0 1.133,0.1 1.586,0.31c0.453,0.2 0.828,0.48 1.125,0.85c0.302,0.37 0.526,0.8 0.672,1.31c0.151,0.5 0.227,1.06 0.227,1.67l0,0.81l-6.532,0l0,-1.36l4.672,0l0,-0.14c-0.01,-0.34 -0.078,-0.66 -0.203,-0.96c-0.12,-0.29 -0.305,-0.53 -0.555,-0.72c-0.25,-0.18 -0.583,-0.27 -1,-0.27c-0.312,0 -0.591,0.07 -0.835,0.2c-0.24,0.13 -0.441,0.32 -0.602,0.57c-0.162,0.25 -0.287,0.56 -0.375,0.91c-0.083,0.35 -0.125,0.74 -0.125,1.18l0,0.31c0,0.37 0.049,0.72 0.148,1.03c0.105,0.32 0.256,0.59 0.454,0.82c0.197,0.24 0.437,0.42 0.718,0.56c0.282,0.13 0.602,0.19 0.961,0.19c0.453,0 0.857,-0.09 1.211,-0.27c0.354,-0.18 0.662,-0.44 0.922,-0.77l0.992,0.96c-0.182,0.26 -0.419,0.52 -0.711,0.76c-0.291,0.24 -0.648,0.44 -1.07,0.59c-0.417,0.15 -0.901,0.23 -1.453,0.23zm6.734,-6.89l0,6.73l-1.883,0l0,-8.45l1.774,0l0.109,1.72zm-0.304,2.19l-0.641,-0.01c0,-0.58 0.073,-1.12 0.219,-1.61c0.145,-0.5 0.359,-0.93 0.64,-1.29c0.282,-0.37 0.63,-0.66 1.047,-0.85c0.422,-0.21 0.909,-0.31 1.461,-0.31c0.385,0 0.737,0.06 1.055,0.17c0.323,0.11 0.601,0.29 0.836,0.53c0.239,0.24 0.422,0.54 0.547,0.92c0.13,0.37 0.195,0.83 0.195,1.36l0,5.63l-1.883,0l0,-5.47c0,-0.41 -0.062,-0.73 -0.187,-0.97c-0.12,-0.23 -0.295,-0.4 -0.524,-0.5c-0.224,-0.1 -0.492,-0.15 -0.805,-0.15c-0.354,0 -0.656,0.06 -0.906,0.2c-0.245,0.13 -0.445,0.32 -0.601,0.55c-0.157,0.24 -0.271,0.51 -0.344,0.82c-0.073,0.3 -0.109,0.63 -0.109,0.98zm5.242,-0.5l-0.883,0.2c0,-0.51 0.07,-1 0.211,-1.45c0.146,-0.46 0.357,-0.86 0.633,-1.2c0.281,-0.35 0.627,-0.62 1.039,-0.82c0.411,-0.2 0.882,-0.3 1.414,-0.3c0.432,0 0.817,0.06 1.156,0.18c0.344,0.11 0.635,0.3 0.875,0.55c0.24,0.25 0.425,0.57 0.545,0.97c0.13,0.4 0.19,0.88 0.19,1.44l0,5.47l-1.891,0l0,-5.48c0,-0.42 -0.063,-0.75 -0.188,-0.99c-0.12,-0.23 -0.291,-0.39 -0.515,-0.48c-0.224,-0.1 -0.493,-0.14 -0.805,-0.14c-0.292,0 -0.55,0.05 -0.773,0.16c-0.219,0.1 -0.404,0.25 -0.555,0.45c-0.151,0.18 -0.266,0.4 -0.344,0.64c-0.073,0.25 -0.109,0.51 -0.109,0.8zm11.88,3.34l0,-4.03c0,-0.3 -0.05,-0.56 -0.16,-0.78c-0.11,-0.22 -0.28,-0.39 -0.5,-0.51c-0.22,-0.12 -0.5,-0.18 -0.83,-0.18c-0.31,0 -0.57,0.06 -0.8,0.16c-0.22,0.11 -0.39,0.25 -0.52,0.42c-0.13,0.18 -0.19,0.38 -0.19,0.6l-1.87,0c0,-0.33 0.08,-0.65 0.24,-0.96c0.16,-0.32 0.4,-0.6 0.7,-0.84c0.31,-0.25 0.68,-0.44 1.1,-0.58c0.43,-0.14 0.91,-0.21 1.44,-0.21c0.64,0 1.2,0.11 1.69,0.32c0.49,0.21 0.88,0.54 1.16,0.97c0.29,0.43 0.43,0.96 0.43,1.61l0,3.76c0,0.38 0.03,0.73 0.08,1.04c0.06,0.3 0.14,0.56 0.24,0.79l0,0.12l-1.93,0c-0.08,-0.2 -0.16,-0.46 -0.21,-0.77c-0.04,-0.32 -0.07,-0.63 -0.07,-0.93zm0.28,-3.44l0.01,1.16l-1.35,0c-0.35,0 -0.66,0.04 -0.92,0.1c-0.27,0.07 -0.49,0.16 -0.67,0.29c-0.17,0.12 -0.31,0.27 -0.39,0.45c-0.09,0.18 -0.14,0.38 -0.14,0.6c0,0.22 0.05,0.43 0.16,0.62c0.1,0.18 0.25,0.32 0.45,0.43c0.21,0.1 0.45,0.15 0.74,0.15c0.38,0 0.72,-0.07 1,-0.23c0.3,-0.16 0.53,-0.36 0.69,-0.59c0.17,-0.23 0.26,-0.45 0.27,-0.66l0.61,0.84c-0.07,0.21 -0.17,0.44 -0.32,0.68c-0.15,0.25 -0.35,0.48 -0.6,0.71c-0.24,0.21 -0.53,0.39 -0.86,0.54c-0.34,0.14 -0.72,0.21 -1.16,0.21c-0.55,0 -1.04,-0.11 -1.48,-0.33c-0.43,-0.23 -0.77,-0.53 -1.01,-0.9c-0.25,-0.38 -0.37,-0.81 -0.37,-1.29c0,-0.45 0.08,-0.84 0.25,-1.19c0.17,-0.35 0.42,-0.64 0.75,-0.87c0.33,-0.24 0.74,-0.41 1.22,-0.53c0.48,-0.13 1.02,-0.19 1.64,-0.19l1.48,0zm5.6,-3.31l0,8.45l-1.89,0l0,-8.45l1.89,0zm-2.02,-2.22c0,-0.29 0.1,-0.53 0.28,-0.71c0.2,-0.2 0.46,-0.29 0.8,-0.29c0.33,0 0.6,0.09 0.79,0.29c0.19,0.18 0.29,0.42 0.29,0.71c0,0.28 -0.1,0.51 -0.29,0.7c-0.19,0.19 -0.46,0.28 -0.79,0.28c-0.34,0 -0.6,-0.09 -0.8,-0.28c-0.18,-0.19 -0.28,-0.42 -0.28,-0.7zm6.1,-1.33l0,12l-1.9,0l0,-12l1.9,0z"/>
   <rect id="svg_15" stroke="#D9D9D9" rx="3.5" height="50" width="347" y="1339.5" x="867.5"/>
   <path id="svg_16" fill="#8989A2" d="m888.477,1432.76l-2.961,0l0,-1.56l2.961,0c0.515,0 0.932,-0.08 1.25,-0.25c0.317,-0.16 0.549,-0.39 0.695,-0.68c0.151,-0.3 0.226,-0.64 0.226,-1.02c0,-0.36 -0.075,-0.7 -0.226,-1.01c-0.146,-0.32 -0.378,-0.57 -0.695,-0.76c-0.318,-0.2 -0.735,-0.29 -1.25,-0.29l-2.36,0l0,9.81l-1.961,0l0,-11.38l4.321,0c0.88,0 1.627,0.16 2.242,0.47c0.62,0.31 1.091,0.74 1.414,1.29c0.323,0.54 0.484,1.16 0.484,1.85c0,0.74 -0.161,1.37 -0.484,1.89c-0.323,0.53 -0.794,0.93 -1.414,1.22c-0.615,0.28 -1.362,0.42 -2.242,0.42zm10.382,2.54l0,-4.03c0,-0.3 -0.054,-0.56 -0.164,-0.78c-0.109,-0.22 -0.276,-0.39 -0.5,-0.51c-0.218,-0.12 -0.494,-0.18 -0.828,-0.18c-0.307,0 -0.573,0.06 -0.797,0.16c-0.224,0.11 -0.398,0.25 -0.523,0.42c-0.125,0.18 -0.188,0.38 -0.188,0.6l-1.875,0c0,-0.33 0.081,-0.65 0.243,-0.96c0.161,-0.32 0.395,-0.6 0.703,-0.84c0.307,-0.25 0.674,-0.44 1.101,-0.58c0.427,-0.14 0.907,-0.21 1.438,-0.21c0.635,0 1.198,0.11 1.687,0.32c0.495,0.21 0.883,0.54 1.164,0.97c0.287,0.43 0.43,0.96 0.43,1.61l0,3.76c0,0.38 0.026,0.73 0.078,1.04c0.057,0.3 0.138,0.56 0.242,0.79l0,0.12l-1.929,0c-0.089,-0.2 -0.159,-0.46 -0.211,-0.77c-0.047,-0.32 -0.071,-0.63 -0.071,-0.93zm0.274,-3.44l0.015,1.16l-1.351,0c-0.349,0 -0.656,0.04 -0.922,0.1c-0.266,0.07 -0.487,0.16 -0.664,0.29c-0.177,0.12 -0.31,0.27 -0.399,0.45c-0.088,0.18 -0.132,0.38 -0.132,0.6c0,0.22 0.052,0.43 0.156,0.62c0.104,0.18 0.255,0.32 0.453,0.43c0.203,0.1 0.448,0.15 0.734,0.15c0.386,0 0.722,-0.07 1.008,-0.23c0.292,-0.16 0.521,-0.36 0.688,-0.59c0.166,-0.23 0.255,-0.45 0.265,-0.66l0.61,0.84c-0.063,0.21 -0.17,0.44 -0.321,0.68c-0.151,0.25 -0.349,0.48 -0.593,0.71c-0.24,0.21 -0.529,0.39 -0.868,0.54c-0.333,0.14 -0.718,0.21 -1.156,0.21c-0.552,0 -1.044,-0.11 -1.476,-0.33c-0.433,-0.23 -0.771,-0.53 -1.016,-0.9c-0.245,-0.38 -0.367,-0.81 -0.367,-1.29c0,-0.45 0.083,-0.84 0.25,-1.19c0.172,-0.35 0.422,-0.64 0.75,-0.87c0.333,-0.24 0.739,-0.41 1.219,-0.53c0.479,-0.13 1.026,-0.19 1.64,-0.19l1.477,0zm8.328,2.85c0,-0.19 -0.047,-0.36 -0.141,-0.51c-0.093,-0.15 -0.273,-0.29 -0.539,-0.42c-0.26,-0.12 -0.646,-0.24 -1.156,-0.34c-0.448,-0.1 -0.859,-0.22 -1.234,-0.35c-0.37,-0.14 -0.688,-0.31 -0.953,-0.51c-0.266,-0.2 -0.472,-0.43 -0.618,-0.7c-0.146,-0.28 -0.218,-0.59 -0.218,-0.94c0,-0.35 0.075,-0.67 0.226,-0.98c0.151,-0.31 0.367,-0.58 0.649,-0.81c0.281,-0.24 0.622,-0.42 1.023,-0.56c0.406,-0.13 0.859,-0.2 1.359,-0.2c0.709,0 1.315,0.12 1.821,0.36c0.51,0.23 0.901,0.55 1.172,0.96c0.27,0.4 0.406,0.86 0.406,1.36l-1.883,0c0,-0.22 -0.057,-0.43 -0.172,-0.62c-0.109,-0.2 -0.276,-0.36 -0.5,-0.48c-0.224,-0.13 -0.505,-0.19 -0.844,-0.19c-0.323,0 -0.591,0.05 -0.804,0.16c-0.209,0.1 -0.365,0.23 -0.469,0.39c-0.099,0.16 -0.148,0.34 -0.148,0.53c0,0.14 0.026,0.27 0.078,0.38c0.057,0.11 0.151,0.21 0.281,0.31c0.13,0.09 0.307,0.17 0.531,0.25c0.229,0.08 0.516,0.15 0.86,0.22c0.645,0.14 1.2,0.31 1.664,0.53c0.468,0.21 0.828,0.48 1.078,0.81c0.25,0.33 0.375,0.74 0.375,1.25c0,0.37 -0.081,0.72 -0.243,1.03c-0.156,0.31 -0.385,0.58 -0.687,0.81c-0.302,0.22 -0.664,0.39 -1.086,0.52c-0.417,0.12 -0.885,0.19 -1.406,0.19c-0.766,0 -1.414,-0.14 -1.945,-0.41c-0.532,-0.28 -0.935,-0.63 -1.211,-1.05c-0.271,-0.44 -0.407,-0.88 -0.407,-1.35l1.821,0c0.02,0.35 0.117,0.63 0.289,0.84c0.177,0.2 0.396,0.35 0.656,0.44c0.266,0.09 0.539,0.14 0.82,0.14c0.339,0 0.623,-0.05 0.852,-0.14c0.229,-0.09 0.403,-0.22 0.523,-0.37c0.12,-0.16 0.18,-0.35 0.18,-0.55zm8.234,0c0,-0.19 -0.047,-0.36 -0.14,-0.51c-0.094,-0.15 -0.274,-0.29 -0.539,-0.42c-0.261,-0.12 -0.646,-0.24 -1.157,-0.34c-0.448,-0.1 -0.859,-0.22 -1.234,-0.35c-0.37,-0.14 -0.687,-0.31 -0.953,-0.51c-0.266,-0.2 -0.471,-0.43 -0.617,-0.7c-0.146,-0.28 -0.219,-0.59 -0.219,-0.94c0,-0.35 0.075,-0.67 0.226,-0.98c0.152,-0.31 0.368,-0.58 0.649,-0.81c0.281,-0.24 0.622,-0.42 1.023,-0.56c0.407,-0.13 0.86,-0.2 1.36,-0.2c0.708,0 1.315,0.12 1.82,0.36c0.51,0.23 0.901,0.55 1.172,0.96c0.271,0.4 0.406,0.86 0.406,1.36l-1.883,0c0,-0.22 -0.057,-0.43 -0.171,-0.62c-0.11,-0.2 -0.277,-0.36 -0.5,-0.48c-0.224,-0.13 -0.506,-0.19 -0.844,-0.19c-0.323,0 -0.591,0.05 -0.805,0.16c-0.208,0.1 -0.365,0.23 -0.469,0.39c-0.099,0.16 -0.148,0.34 -0.148,0.53c0,0.14 0.026,0.27 0.078,0.38c0.057,0.11 0.151,0.21 0.281,0.31c0.13,0.09 0.308,0.17 0.531,0.25c0.23,0.08 0.516,0.15 0.86,0.22c0.646,0.14 1.2,0.31 1.664,0.53c0.469,0.21 0.828,0.48 1.078,0.81c0.25,0.33 0.375,0.74 0.375,1.25c0,0.37 -0.081,0.72 -0.242,1.03c-0.156,0.31 -0.386,0.58 -0.688,0.81c-0.302,0.22 -0.664,0.39 -1.086,0.52c-0.416,0.12 -0.885,0.19 -1.406,0.19c-0.765,0 -1.414,-0.14 -1.945,-0.41c-0.531,-0.28 -0.935,-0.63 -1.211,-1.05c-0.271,-0.44 -0.406,-0.88 -0.406,-1.35l1.82,0c0.021,0.35 0.117,0.63 0.289,0.84c0.177,0.2 0.396,0.35 0.656,0.44c0.266,0.09 0.539,0.14 0.821,0.14c0.338,0 0.622,-0.05 0.851,-0.14c0.229,-0.09 0.404,-0.22 0.524,-0.37c0.119,-0.16 0.179,-0.35 0.179,-0.55zm5.789,0.41l1.954,-6.57l1.203,0l-0.329,1.97l-1.968,6.48l-1.078,0l0.218,-1.88zm-1.148,-6.57l1.523,6.61l0.125,1.84l-1.203,0l-2.289,-8.45l1.844,0zm6.133,6.53l1.476,-6.53l1.836,0l-2.281,8.45l-1.203,0l0.172,-1.92zm-1.625,-6.53l1.929,6.5l0.243,1.95l-1.078,0l-1.993,-6.49l-0.328,-1.96l1.227,0zm5.859,4.32l0,-0.18c0,-0.61 0.089,-1.18 0.266,-1.7c0.177,-0.52 0.432,-0.98 0.765,-1.37c0.339,-0.39 0.75,-0.69 1.235,-0.9c0.489,-0.22 1.041,-0.33 1.656,-0.33c0.62,0 1.172,0.11 1.656,0.33c0.49,0.21 0.904,0.51 1.242,0.9c0.339,0.39 0.597,0.85 0.774,1.37c0.177,0.52 0.265,1.09 0.265,1.7l0,0.18c0,0.61 -0.088,1.17 -0.265,1.69c-0.177,0.52 -0.435,0.98 -0.774,1.37c-0.338,0.39 -0.75,0.69 -1.234,0.91c-0.484,0.21 -1.034,0.32 -1.648,0.32c-0.62,0 -1.175,-0.11 -1.664,-0.32c-0.485,-0.22 -0.896,-0.52 -1.235,-0.91c-0.338,-0.39 -0.596,-0.85 -0.773,-1.37c-0.177,-0.52 -0.266,-1.08 -0.266,-1.69zm1.883,-0.18l0,0.18c0,0.38 0.039,0.74 0.117,1.08c0.078,0.33 0.201,0.63 0.367,0.89c0.167,0.25 0.381,0.45 0.641,0.6c0.26,0.14 0.57,0.22 0.93,0.22c0.349,0 0.651,-0.08 0.906,-0.22c0.26,-0.15 0.474,-0.35 0.641,-0.6c0.166,-0.26 0.289,-0.56 0.367,-0.89c0.083,-0.34 0.125,-0.7 0.125,-1.08l0,-0.18c0,-0.38 -0.042,-0.73 -0.125,-1.07c-0.078,-0.33 -0.203,-0.63 -0.375,-0.89c-0.167,-0.26 -0.381,-0.47 -0.641,-0.61c-0.255,-0.15 -0.56,-0.23 -0.914,-0.23c-0.354,0 -0.661,0.08 -0.922,0.23c-0.255,0.14 -0.466,0.35 -0.633,0.61c-0.166,0.26 -0.289,0.56 -0.367,0.89c-0.078,0.34 -0.117,0.69 -0.117,1.07zm9.445,-2.53l0,6.84l-1.883,0l0,-8.45l1.797,0l0.086,1.61zm2.586,-1.67l-0.015,1.75c-0.115,-0.02 -0.24,-0.03 -0.375,-0.04c-0.131,-0.02 -0.261,-0.02 -0.391,-0.02c-0.323,0 -0.607,0.05 -0.852,0.14c-0.244,0.09 -0.45,0.22 -0.617,0.39c-0.161,0.17 -0.286,0.37 -0.375,0.61c-0.088,0.24 -0.14,0.51 -0.156,0.8l-0.43,0.04c0,-0.54 0.052,-1.03 0.156,-1.48c0.105,-0.45 0.261,-0.85 0.469,-1.2c0.214,-0.34 0.479,-0.61 0.797,-0.8c0.323,-0.19 0.695,-0.29 1.117,-0.29c0.115,0 0.237,0.01 0.367,0.03c0.136,0.02 0.237,0.05 0.305,0.07zm6.18,6.76l0,-10.25l1.891,0l0,12l-1.711,0l-0.18,-1.75zm-5.5,-2.38l0,-0.17c0,-0.64 0.075,-1.22 0.226,-1.75c0.151,-0.53 0.37,-0.98 0.657,-1.36c0.286,-0.39 0.635,-0.68 1.047,-0.89c0.411,-0.21 0.875,-0.31 1.39,-0.31c0.511,0 0.959,0.1 1.344,0.3c0.385,0.2 0.713,0.48 0.984,0.85c0.271,0.36 0.487,0.8 0.649,1.31c0.161,0.51 0.276,1.07 0.344,1.69l0,0.52c-0.068,0.61 -0.183,1.16 -0.344,1.66c-0.162,0.5 -0.378,0.93 -0.649,1.3c-0.271,0.36 -0.601,0.64 -0.992,0.84c-0.385,0.2 -0.836,0.3 -1.351,0.3c-0.511,0 -0.972,-0.11 -1.383,-0.32c-0.407,-0.22 -0.753,-0.52 -1.039,-0.9c-0.287,-0.39 -0.506,-0.84 -0.657,-1.36c-0.151,-0.53 -0.226,-1.1 -0.226,-1.71zm1.883,-0.17l0,0.17c0,0.38 0.034,0.74 0.101,1.08c0.073,0.33 0.185,0.62 0.336,0.88c0.151,0.25 0.347,0.45 0.586,0.59c0.245,0.14 0.537,0.21 0.875,0.21c0.427,0 0.779,-0.09 1.055,-0.28c0.276,-0.19 0.492,-0.44 0.648,-0.76c0.162,-0.32 0.271,-0.68 0.328,-1.07l0,-1.42c-0.031,-0.31 -0.096,-0.59 -0.195,-0.86c-0.094,-0.26 -0.221,-0.5 -0.383,-0.69c-0.161,-0.21 -0.362,-0.36 -0.601,-0.47c-0.235,-0.12 -0.513,-0.17 -0.836,-0.17c-0.344,0 -0.636,0.07 -0.875,0.21c-0.24,0.15 -0.438,0.35 -0.594,0.61c-0.151,0.25 -0.263,0.55 -0.336,0.89c-0.073,0.34 -0.109,0.7 -0.109,1.08z"/>
   <rect id="svg_17" stroke="#D9D9D9" rx="3.5" height="50" width="347" y="1406.5" x="867.5"/>
   <path id="svg_18" fill="#8989A2" d="m884.156,1492.62l4.024,0c0.864,0 1.601,0.14 2.211,0.4c0.609,0.26 1.075,0.64 1.398,1.15c0.328,0.51 0.492,1.13 0.492,1.88c0,0.56 -0.104,1.06 -0.312,1.5c-0.209,0.43 -0.503,0.79 -0.883,1.09c-0.38,0.29 -0.833,0.52 -1.359,0.68l-0.594,0.29l-3.617,0l-0.016,-1.56l2.711,0c0.469,0 0.859,-0.08 1.172,-0.25c0.312,-0.16 0.547,-0.39 0.703,-0.68c0.161,-0.29 0.242,-0.61 0.242,-0.98c0,-0.4 -0.078,-0.74 -0.234,-1.03c-0.151,-0.3 -0.386,-0.52 -0.703,-0.68c-0.318,-0.16 -0.722,-0.24 -1.211,-0.24l-2.063,0l0,9.81l-1.961,0l0,-11.38zm6.492,11.38l-2.671,-5.11l2.054,-0.01l2.711,5.02l0,0.1l-2.094,0zm7.125,0.16c-0.625,0 -1.19,-0.11 -1.695,-0.31c-0.5,-0.21 -0.927,-0.5 -1.281,-0.87c-0.349,-0.37 -0.617,-0.8 -0.805,-1.3c-0.187,-0.5 -0.281,-1.04 -0.281,-1.62l0,-0.31c0,-0.66 0.096,-1.26 0.289,-1.8c0.193,-0.53 0.461,-0.99 0.805,-1.37c0.343,-0.39 0.75,-0.68 1.218,-0.88c0.469,-0.21 0.977,-0.31 1.524,-0.31c0.604,0 1.133,0.1 1.586,0.31c0.453,0.2 0.828,0.48 1.125,0.85c0.302,0.37 0.526,0.8 0.672,1.31c0.151,0.5 0.226,1.06 0.226,1.67l0,0.81l-6.531,0l0,-1.36l4.672,0l0,-0.14c-0.011,-0.34 -0.078,-0.66 -0.203,-0.96c-0.12,-0.29 -0.305,-0.53 -0.555,-0.72c-0.25,-0.18 -0.583,-0.27 -1,-0.27c-0.312,0 -0.591,0.07 -0.836,0.2c-0.239,0.13 -0.44,0.32 -0.601,0.57c-0.162,0.25 -0.287,0.56 -0.375,0.91c-0.084,0.35 -0.125,0.74 -0.125,1.18l0,0.31c0,0.37 0.049,0.72 0.148,1.03c0.104,0.32 0.255,0.59 0.453,0.82c0.198,0.24 0.438,0.42 0.719,0.56c0.281,0.13 0.601,0.19 0.961,0.19c0.453,0 0.857,-0.09 1.211,-0.27c0.354,-0.18 0.661,-0.44 0.922,-0.77l0.992,0.96c-0.182,0.26 -0.419,0.52 -0.711,0.76c-0.292,0.24 -0.649,0.44 -1.07,0.59c-0.417,0.15 -0.901,0.23 -1.454,0.23zm8.641,-5.77l0,1.5l-4.133,0l0,-1.5l4.133,0zm5.524,-2.84l0,1.37l-4.766,0l0,-1.37l4.766,0zm-3.391,-2.07l1.883,0l0,8.18c0,0.26 0.036,0.46 0.109,0.61c0.078,0.13 0.185,0.22 0.32,0.27c0.136,0.05 0.295,0.07 0.477,0.07c0.13,0 0.255,-0.01 0.375,-0.02c0.12,-0.02 0.216,-0.04 0.289,-0.05l0.008,1.44c-0.156,0.04 -0.339,0.09 -0.547,0.12c-0.203,0.04 -0.438,0.06 -0.703,0.06c-0.432,0 -0.815,-0.08 -1.149,-0.23c-0.333,-0.16 -0.593,-0.41 -0.781,-0.76c-0.187,-0.35 -0.281,-0.81 -0.281,-1.39l0,-8.3zm7.297,9.6l2.297,-7.53l2.015,0l-3.39,9.74c-0.078,0.21 -0.18,0.43 -0.305,0.68c-0.125,0.24 -0.289,0.48 -0.492,0.69c-0.198,0.23 -0.446,0.41 -0.742,0.54c-0.297,0.14 -0.657,0.21 -1.079,0.21c-0.166,0 -0.328,-0.01 -0.484,-0.04c-0.151,-0.03 -0.294,-0.06 -0.43,-0.09l-0.007,-1.44c0.052,0.01 0.114,0.01 0.187,0.02c0.078,0 0.141,0.01 0.188,0.01c0.312,0 0.572,-0.04 0.781,-0.12c0.208,-0.07 0.377,-0.19 0.508,-0.36c0.135,-0.17 0.25,-0.39 0.343,-0.67l0.61,-1.64zm-1.297,-7.53l2.008,6.33l0.336,1.98l-1.305,0.34l-3.07,-8.65l2.031,0zm8.578,1.62l0,10.08l-1.883,0l0,-11.7l1.735,0l0.148,1.62zm5.508,2.53l0,0.16c0,0.61 -0.073,1.18 -0.219,1.71c-0.141,0.52 -0.352,0.98 -0.633,1.37c-0.276,0.38 -0.617,0.68 -1.023,0.9c-0.406,0.21 -0.875,0.32 -1.406,0.32c-0.526,0 -0.987,-0.1 -1.383,-0.29c-0.391,-0.2 -0.722,-0.48 -0.992,-0.84c-0.271,-0.36 -0.49,-0.78 -0.657,-1.26c-0.161,-0.49 -0.276,-1.03 -0.343,-1.61l0,-0.64c0.067,-0.62 0.182,-1.18 0.343,-1.68c0.167,-0.51 0.386,-0.94 0.657,-1.31c0.27,-0.36 0.601,-0.64 0.992,-0.84c0.39,-0.2 0.846,-0.3 1.367,-0.3c0.531,0 1.003,0.1 1.414,0.31c0.411,0.21 0.758,0.5 1.039,0.88c0.281,0.37 0.492,0.83 0.633,1.36c0.14,0.52 0.211,1.11 0.211,1.76zm-1.883,0.16l0,-0.16c0,-0.4 -0.036,-0.76 -0.109,-1.09c-0.073,-0.34 -0.188,-0.64 -0.344,-0.89c-0.156,-0.26 -0.357,-0.45 -0.602,-0.6c-0.239,-0.14 -0.528,-0.21 -0.867,-0.21c-0.333,0 -0.62,0.05 -0.859,0.17c-0.24,0.11 -0.44,0.26 -0.602,0.46c-0.161,0.2 -0.286,0.43 -0.375,0.69c-0.088,0.26 -0.151,0.55 -0.187,0.86l0,1.51c0.062,0.38 0.169,0.72 0.32,1.03c0.151,0.32 0.365,0.57 0.641,0.75c0.281,0.19 0.64,0.28 1.078,0.28c0.338,0 0.627,-0.08 0.867,-0.22c0.24,-0.15 0.435,-0.35 0.586,-0.6c0.156,-0.26 0.271,-0.56 0.344,-0.9c0.073,-0.34 0.109,-0.7 0.109,-1.08zm7.211,4.3c-0.625,0 -1.19,-0.11 -1.695,-0.31c-0.5,-0.21 -0.927,-0.5 -1.282,-0.87c-0.349,-0.37 -0.617,-0.8 -0.804,-1.3c-0.188,-0.5 -0.282,-1.04 -0.282,-1.62l0,-0.31c0,-0.66 0.097,-1.26 0.29,-1.8c0.192,-0.53 0.46,-0.99 0.804,-1.37c0.344,-0.39 0.75,-0.68 1.219,-0.88c0.469,-0.21 0.977,-0.31 1.523,-0.31c0.605,0 1.133,0.1 1.586,0.31c0.453,0.2 0.828,0.48 1.125,0.85c0.302,0.37 0.526,0.8 0.672,1.31c0.151,0.5 0.227,1.06 0.227,1.67l0,0.81l-6.532,0l0,-1.36l4.672,0l0,-0.14c-0.01,-0.34 -0.078,-0.66 -0.203,-0.96c-0.12,-0.29 -0.304,-0.53 -0.554,-0.72c-0.25,-0.18 -0.584,-0.27 -1,-0.27c-0.313,0 -0.592,0.07 -0.836,0.2c-0.24,0.13 -0.44,0.32 -0.602,0.57c-0.161,0.25 -0.286,0.56 -0.375,0.91c-0.083,0.35 -0.125,0.74 -0.125,1.18l0,0.31c0,0.37 0.05,0.72 0.149,1.03c0.104,0.32 0.255,0.59 0.453,0.82c0.198,0.24 0.437,0.42 0.718,0.56c0.282,0.13 0.602,0.19 0.961,0.19c0.453,0 0.857,-0.09 1.211,-0.27c0.354,-0.18 0.662,-0.44 0.922,-0.77l0.992,0.96c-0.182,0.26 -0.419,0.52 -0.711,0.76c-0.291,0.24 -0.648,0.44 -1.07,0.59c-0.417,0.15 -0.901,0.23 -1.453,0.23zm13.344,-4.4l-2.961,0l0,-1.56l2.961,0c0.515,0 0.932,-0.08 1.25,-0.25c0.317,-0.16 0.549,-0.39 0.695,-0.68c0.151,-0.3 0.227,-0.64 0.227,-1.02c0,-0.36 -0.076,-0.7 -0.227,-1.01c-0.146,-0.32 -0.378,-0.57 -0.695,-0.76c-0.318,-0.2 -0.735,-0.29 -1.25,-0.29l-2.36,0l0,9.81l-1.961,0l0,-11.38l4.321,0c0.88,0 1.627,0.16 2.242,0.47c0.62,0.31 1.091,0.74 1.414,1.29c0.323,0.54 0.484,1.16 0.484,1.85c0,0.74 -0.161,1.37 -0.484,1.89c-0.323,0.53 -0.794,0.93 -1.414,1.22c-0.615,0.28 -1.362,0.42 -2.242,0.42zm10.383,2.54l0,-4.03c0,-0.3 -0.055,-0.56 -0.165,-0.78c-0.109,-0.22 -0.276,-0.39 -0.5,-0.51c-0.218,-0.12 -0.494,-0.18 -0.828,-0.18c-0.307,0 -0.573,0.06 -0.797,0.16c-0.224,0.11 -0.398,0.25 -0.523,0.42c-0.125,0.18 -0.187,0.38 -0.187,0.6l-1.876,0c0,-0.33 0.081,-0.65 0.243,-0.96c0.161,-0.32 0.396,-0.6 0.703,-0.84c0.307,-0.25 0.674,-0.44 1.101,-0.58c0.427,-0.14 0.907,-0.21 1.438,-0.21c0.635,0 1.198,0.11 1.687,0.32c0.495,0.21 0.883,0.54 1.164,0.97c0.287,0.43 0.43,0.96 0.43,1.61l0,3.76c0,0.38 0.026,0.73 0.078,1.04c0.058,0.3 0.138,0.56 0.242,0.79l0,0.12l-1.929,0c-0.089,-0.2 -0.159,-0.46 -0.211,-0.77c-0.047,-0.32 -0.07,-0.63 -0.07,-0.93zm0.273,-3.44l0.016,1.16l-1.352,0c-0.349,0 -0.656,0.04 -0.922,0.1c-0.265,0.07 -0.487,0.16 -0.664,0.29c-0.177,0.12 -0.31,0.27 -0.398,0.45c-0.089,0.18 -0.133,0.38 -0.133,0.6c0,0.22 0.052,0.43 0.156,0.62c0.104,0.18 0.255,0.32 0.453,0.43c0.203,0.1 0.448,0.15 0.735,0.15c0.385,0 0.721,-0.07 1.007,-0.23c0.292,-0.16 0.521,-0.36 0.688,-0.59c0.167,-0.23 0.255,-0.45 0.265,-0.66l0.61,0.84c-0.063,0.21 -0.169,0.44 -0.32,0.68c-0.151,0.25 -0.349,0.48 -0.594,0.71c-0.24,0.21 -0.529,0.39 -0.867,0.54c-0.334,0.14 -0.719,0.21 -1.157,0.21c-0.552,0 -1.044,-0.11 -1.476,-0.33c-0.432,-0.23 -0.771,-0.53 -1.016,-0.9c-0.245,-0.38 -0.367,-0.81 -0.367,-1.29c0,-0.45 0.083,-0.84 0.25,-1.19c0.172,-0.35 0.422,-0.64 0.75,-0.87c0.333,-0.24 0.74,-0.41 1.219,-0.53c0.479,-0.13 1.026,-0.19 1.64,-0.19l1.477,0zm8.328,2.85c0,-0.19 -0.047,-0.36 -0.141,-0.51c-0.093,-0.15 -0.273,-0.29 -0.539,-0.42c-0.26,-0.12 -0.645,-0.24 -1.156,-0.34c-0.448,-0.1 -0.859,-0.22 -1.234,-0.35c-0.37,-0.14 -0.688,-0.31 -0.953,-0.51c-0.266,-0.2 -0.472,-0.43 -0.618,-0.7c-0.145,-0.28 -0.218,-0.59 -0.218,-0.94c0,-0.35 0.075,-0.67 0.226,-0.98c0.151,-0.31 0.367,-0.58 0.649,-0.81c0.281,-0.24 0.622,-0.42 1.023,-0.56c0.406,-0.13 0.86,-0.2 1.36,-0.2c0.708,0 1.315,0.12 1.82,0.36c0.51,0.23 0.901,0.55 1.172,0.96c0.271,0.4 0.406,0.86 0.406,1.36l-1.883,0c0,-0.22 -0.057,-0.43 -0.172,-0.62c-0.109,-0.2 -0.276,-0.36 -0.5,-0.48c-0.224,-0.13 -0.505,-0.19 -0.843,-0.19c-0.323,0 -0.592,0.05 -0.805,0.16c-0.209,0.1 -0.365,0.23 -0.469,0.39c-0.099,0.16 -0.148,0.34 -0.148,0.53c0,0.14 0.026,0.27 0.078,0.38c0.057,0.11 0.151,0.21 0.281,0.31c0.13,0.09 0.307,0.17 0.531,0.25c0.229,0.08 0.516,0.15 0.86,0.22c0.645,0.14 1.2,0.31 1.664,0.53c0.468,0.21 0.828,0.48 1.078,0.81c0.25,0.33 0.375,0.74 0.375,1.25c0,0.37 -0.081,0.72 -0.242,1.03c-0.157,0.31 -0.386,0.58 -0.688,0.81c-0.302,0.22 -0.664,0.39 -1.086,0.52c-0.416,0.12 -0.885,0.19 -1.406,0.19c-0.766,0 -1.414,-0.14 -1.945,-0.41c-0.532,-0.28 -0.935,-0.63 -1.211,-1.05c-0.271,-0.44 -0.407,-0.88 -0.407,-1.35l1.821,0c0.021,0.35 0.117,0.63 0.289,0.84c0.177,0.2 0.396,0.35 0.656,0.44c0.266,0.09 0.539,0.14 0.82,0.14c0.339,0 0.623,-0.05 0.852,-0.14c0.229,-0.09 0.404,-0.22 0.523,-0.37c0.12,-0.16 0.18,-0.35 0.18,-0.55zm8.234,0c0,-0.19 -0.046,-0.36 -0.14,-0.51c-0.094,-0.15 -0.274,-0.29 -0.539,-0.42c-0.261,-0.12 -0.646,-0.24 -1.156,-0.34c-0.448,-0.1 -0.86,-0.22 -1.235,-0.35c-0.37,-0.14 -0.687,-0.31 -0.953,-0.51c-0.266,-0.2 -0.471,-0.43 -0.617,-0.7c-0.146,-0.28 -0.219,-0.59 -0.219,-0.94c0,-0.35 0.076,-0.67 0.227,-0.98c0.151,-0.31 0.367,-0.58 0.648,-0.81c0.281,-0.24 0.622,-0.42 1.023,-0.56c0.407,-0.13 0.86,-0.2 1.36,-0.2c0.708,0 1.315,0.12 1.82,0.36c0.511,0.23 0.901,0.55 1.172,0.96c0.271,0.4 0.406,0.86 0.406,1.36l-1.882,0c0,-0.22 -0.058,-0.43 -0.172,-0.62c-0.11,-0.2 -0.276,-0.36 -0.5,-0.48c-0.224,-0.13 -0.506,-0.19 -0.844,-0.19c-0.323,0 -0.591,0.05 -0.805,0.16c-0.208,0.1 -0.364,0.23 -0.469,0.39c-0.099,0.16 -0.148,0.34 -0.148,0.53c0,0.14 0.026,0.27 0.078,0.38c0.057,0.11 0.151,0.21 0.281,0.31c0.131,0.09 0.308,0.17 0.532,0.25c0.229,0.08 0.515,0.15 0.859,0.22c0.646,0.14 1.201,0.31 1.664,0.53c0.469,0.21 0.828,0.48 1.078,0.81c0.25,0.33 0.375,0.74 0.375,1.25c0,0.37 -0.081,0.72 -0.242,1.03c-0.156,0.31 -0.385,0.58 -0.687,0.81c-0.303,0.22 -0.665,0.39 -1.086,0.52c-0.417,0.12 -0.886,0.19 -1.407,0.19c-0.765,0 -1.414,-0.14 -1.945,-0.41c-0.531,-0.28 -0.935,-0.63 -1.211,-1.05c-0.271,-0.44 -0.406,-0.88 -0.406,-1.35l1.82,0c0.021,0.35 0.117,0.63 0.289,0.84c0.177,0.2 0.396,0.35 0.656,0.44c0.266,0.09 0.54,0.14 0.821,0.14c0.338,0 0.622,-0.05 0.851,-0.14c0.229,-0.09 0.404,-0.22 0.524,-0.37c0.12,-0.16 0.179,-0.35 0.179,-0.55zm5.789,0.41l1.954,-6.57l1.203,0l-0.328,1.97l-1.969,6.48l-1.078,0l0.218,-1.88zm-1.148,-6.57l1.524,6.61l0.124,1.84l-1.203,0l-2.289,-8.45l1.844,0zm6.133,6.53l1.476,-6.53l1.836,0l-2.281,8.45l-1.203,0l0.172,-1.92zm-1.625,-6.53l1.93,6.5l0.242,1.95l-1.078,0l-1.993,-6.49l-0.328,-1.96l1.227,0zm5.859,4.32l0,-0.18c0,-0.61 0.089,-1.18 0.266,-1.7c0.177,-0.52 0.432,-0.98 0.765,-1.37c0.339,-0.39 0.75,-0.69 1.235,-0.9c0.489,-0.22 1.042,-0.33 1.656,-0.33c0.62,0 1.172,0.11 1.656,0.33c0.49,0.21 0.904,0.51 1.243,0.9c0.338,0.39 0.596,0.85 0.773,1.37c0.177,0.52 0.266,1.09 0.266,1.7l0,0.18c0,0.61 -0.089,1.17 -0.266,1.69c-0.177,0.52 -0.435,0.98 -0.773,1.37c-0.339,0.39 -0.75,0.69 -1.235,0.91c-0.484,0.21 -1.034,0.32 -1.648,0.32c-0.62,0 -1.175,-0.11 -1.664,-0.32c-0.485,-0.22 -0.896,-0.52 -1.235,-0.91c-0.338,-0.39 -0.596,-0.85 -0.773,-1.37c-0.177,-0.52 -0.266,-1.08 -0.266,-1.69zm1.883,-0.18l0,0.18c0,0.38 0.039,0.74 0.117,1.08c0.078,0.33 0.201,0.63 0.367,0.89c0.167,0.25 0.381,0.45 0.641,0.6c0.26,0.14 0.57,0.22 0.93,0.22c0.349,0 0.651,-0.08 0.906,-0.22c0.26,-0.15 0.474,-0.35 0.641,-0.6c0.166,-0.26 0.289,-0.56 0.367,-0.89c0.083,-0.34 0.125,-0.7 0.125,-1.08l0,-0.18c0,-0.38 -0.042,-0.73 -0.125,-1.07c-0.078,-0.33 -0.203,-0.63 -0.375,-0.89c-0.167,-0.26 -0.38,-0.47 -0.641,-0.61c-0.255,-0.15 -0.56,-0.23 -0.914,-0.23c-0.354,0 -0.661,0.08 -0.922,0.23c-0.255,0.14 -0.466,0.35 -0.633,0.61c-0.166,0.26 -0.289,0.56 -0.367,0.89c-0.078,0.34 -0.117,0.69 -0.117,1.07zm9.446,-2.53l0,6.84l-1.883,0l0,-8.45l1.793,0l0.09,1.61zm2.59,-1.67l-0.02,1.75c-0.11,-0.02 -0.24,-0.03 -0.38,-0.04c-0.13,-0.02 -0.26,-0.02 -0.39,-0.02c-0.32,0 -0.6,0.05 -0.85,0.14c-0.24,0.09 -0.45,0.22 -0.61,0.39c-0.17,0.17 -0.29,0.37 -0.38,0.61c-0.09,0.24 -0.14,0.51 -0.16,0.8l-0.43,0.04c0,-0.54 0.06,-1.03 0.16,-1.48c0.1,-0.45 0.26,-0.85 0.47,-1.2c0.21,-0.34 0.48,-0.61 0.8,-0.8c0.32,-0.19 0.69,-0.29 1.11,-0.29c0.12,0 0.24,0.01 0.37,0.03c0.14,0.02 0.24,0.05 0.31,0.07zm6.17,6.76l0,-10.25l1.9,0l0,12l-1.72,0l-0.18,-1.75zm-5.5,-2.38l0,-0.17c0,-0.64 0.08,-1.22 0.23,-1.75c0.15,-0.53 0.37,-0.98 0.66,-1.36c0.28,-0.39 0.63,-0.68 1.04,-0.89c0.42,-0.21 0.88,-0.31 1.4,-0.31c0.51,0 0.95,0.1 1.34,0.3c0.38,0.2 0.71,0.48 0.98,0.85c0.27,0.36 0.49,0.8 0.65,1.31c0.16,0.51 0.28,1.07 0.35,1.69l0,0.52c-0.07,0.61 -0.19,1.16 -0.35,1.66c-0.16,0.5 -0.38,0.93 -0.65,1.3c-0.27,0.36 -0.6,0.64 -0.99,0.84c-0.38,0.2 -0.83,0.3 -1.35,0.3c-0.51,0 -0.97,-0.11 -1.38,-0.32c-0.41,-0.22 -0.76,-0.52 -1.04,-0.9c-0.29,-0.39 -0.51,-0.84 -0.66,-1.36c-0.15,-0.53 -0.23,-1.1 -0.23,-1.71zm1.89,-0.17l0,0.17c0,0.38 0.03,0.74 0.1,1.08c0.07,0.33 0.18,0.62 0.34,0.88c0.15,0.25 0.34,0.45 0.58,0.59c0.25,0.14 0.54,0.21 0.88,0.21c0.42,0 0.77,-0.09 1.05,-0.28c0.28,-0.19 0.49,-0.44 0.65,-0.76c0.16,-0.32 0.27,-0.68 0.33,-1.07l0,-1.42c-0.03,-0.31 -0.1,-0.59 -0.2,-0.86c-0.09,-0.26 -0.22,-0.5 -0.38,-0.69c-0.16,-0.21 -0.36,-0.36 -0.6,-0.47c-0.24,-0.12 -0.52,-0.17 -0.84,-0.17c-0.34,0 -0.63,0.07 -0.87,0.21c-0.24,0.15 -0.44,0.35 -0.6,0.61c-0.15,0.25 -0.26,0.55 -0.33,0.89c-0.08,0.34 -0.11,0.7 -0.11,1.08z"/>
   <rect id="svg_19" stroke="#D9D9D9" rx="3.5" height="50" width="347" y="1473.5" x="867.5"/>
   <path id="svg_20" fill="black" d="m985.672,1548.38l0,1.55l-6.039,0l0,-1.55l6.039,0zm-5.555,-4.76l0,11.38l-1.961,0l0,-11.38l1.961,0zm7.063,0l0,11.38l-1.953,0l0,-11.38l1.953,0zm5.875,11.54c-0.625,0 -1.19,-0.11 -1.696,-0.31c-0.5,-0.21 -0.927,-0.5 -1.281,-0.87c-0.349,-0.37 -0.617,-0.8 -0.805,-1.3c-0.187,-0.5 -0.281,-1.04 -0.281,-1.62l0,-0.31c0,-0.66 0.097,-1.26 0.289,-1.8c0.193,-0.53 0.461,-0.99 0.805,-1.37c0.344,-0.39 0.75,-0.68 1.219,-0.88c0.468,-0.21 0.976,-0.31 1.523,-0.31c0.604,0 1.133,0.1 1.586,0.31c0.453,0.2 0.828,0.48 1.125,0.85c0.302,0.37 0.526,0.8 0.672,1.31c0.151,0.5 0.227,1.06 0.227,1.67l0,0.81l-6.532,0l0,-1.36l4.672,0l0,-0.14c-0.01,-0.34 -0.078,-0.66 -0.203,-0.96c-0.12,-0.29 -0.305,-0.53 -0.555,-0.72c-0.25,-0.18 -0.583,-0.27 -1,-0.27c-0.312,0 -0.591,0.07 -0.836,0.2c-0.239,0.13 -0.44,0.32 -0.601,0.57c-0.162,0.25 -0.287,0.56 -0.375,0.91c-0.084,0.35 -0.125,0.74 -0.125,1.18l0,0.31c0,0.37 0.049,0.72 0.148,1.03c0.104,0.32 0.255,0.59 0.453,0.82c0.198,0.24 0.438,0.42 0.719,0.56c0.281,0.13 0.602,0.19 0.961,0.19c0.453,0 0.857,-0.09 1.211,-0.27c0.354,-0.18 0.661,-0.44 0.922,-0.77l0.992,0.96c-0.182,0.26 -0.419,0.52 -0.711,0.76c-0.292,0.24 -0.648,0.44 -1.07,0.59c-0.417,0.15 -0.901,0.23 -1.453,0.23zm6.867,-12.16l0,12l-1.891,0l0,-12l1.891,0zm3.958,5.17l0,10.08l-1.89,0l0,-11.7l1.74,0l0.15,1.62zm5.5,2.53l0,0.16c0,0.61 -0.07,1.18 -0.22,1.71c-0.14,0.52 -0.35,0.98 -0.63,1.37c-0.27,0.38 -0.62,0.68 -1.02,0.9c-0.41,0.21 -0.88,0.32 -1.41,0.32c-0.52,0 -0.99,-0.1 -1.38,-0.29c-0.39,-0.2 -0.72,-0.48 -0.99,-0.84c-0.27,-0.36 -0.49,-0.78 -0.66,-1.26c-0.16,-0.49 -0.28,-1.03 -0.34,-1.61l0,-0.64c0.06,-0.62 0.18,-1.18 0.34,-1.68c0.17,-0.51 0.39,-0.94 0.66,-1.31c0.27,-0.36 0.6,-0.64 0.99,-0.84c0.39,-0.2 0.85,-0.3 1.37,-0.3c0.53,0 1,0.1 1.41,0.31c0.41,0.21 0.76,0.5 1.04,0.88c0.28,0.37 0.49,0.83 0.63,1.36c0.14,0.52 0.21,1.11 0.21,1.76zm-1.88,0.16l0,-0.16c0,-0.4 -0.04,-0.76 -0.11,-1.09c-0.07,-0.34 -0.19,-0.64 -0.34,-0.89c-0.16,-0.26 -0.36,-0.45 -0.6,-0.6c-0.24,-0.14 -0.53,-0.21 -0.87,-0.21c-0.34,0 -0.62,0.05 -0.86,0.17c-0.24,0.11 -0.44,0.26 -0.6,0.46c-0.16,0.2 -0.29,0.43 -0.38,0.69c-0.09,0.26 -0.15,0.55 -0.19,0.86l0,1.51c0.07,0.38 0.17,0.72 0.33,1.03c0.15,0.32 0.36,0.57 0.64,0.75c0.28,0.19 0.64,0.28 1.07,0.28c0.34,0 0.63,-0.08 0.87,-0.22c0.24,-0.15 0.44,-0.35 0.59,-0.6c0.15,-0.26 0.27,-0.56 0.34,-0.9c0.07,-0.34 0.11,-0.7 0.11,-1.08zm12.55,2.15l0,-6.46l1.9,0l0,8.45l-1.79,0l-0.11,-1.99zm0.27,-1.76l0.63,-0.02c0,0.57 -0.06,1.1 -0.18,1.57c-0.13,0.48 -0.32,0.89 -0.58,1.25c-0.26,0.35 -0.6,0.62 -1,0.82c-0.41,0.19 -0.9,0.29 -1.46,0.29c-0.41,0 -0.79,-0.06 -1.14,-0.18c-0.34,-0.12 -0.64,-0.31 -0.89,-0.56c-0.24,-0.25 -0.43,-0.57 -0.57,-0.97c-0.13,-0.41 -0.2,-0.88 -0.2,-1.44l0,-5.46l1.88,0l0,5.47c0,0.31 0.04,0.57 0.11,0.78c0.07,0.2 0.17,0.36 0.3,0.49c0.12,0.12 0.27,0.21 0.44,0.26c0.16,0.06 0.34,0.08 0.53,0.08c0.53,0 0.96,-0.1 1.26,-0.31c0.32,-0.21 0.54,-0.5 0.67,-0.86c0.13,-0.36 0.2,-0.76 0.2,-1.21zm8.3,1.46c0,-0.19 -0.05,-0.36 -0.14,-0.51c-0.1,-0.15 -0.28,-0.29 -0.54,-0.42c-0.26,-0.12 -0.65,-0.24 -1.16,-0.34c-0.45,-0.1 -0.86,-0.22 -1.23,-0.35c-0.37,-0.14 -0.69,-0.31 -0.96,-0.51c-0.26,-0.2 -0.47,-0.43 -0.61,-0.7c-0.15,-0.28 -0.22,-0.59 -0.22,-0.94c0,-0.35 0.07,-0.67 0.22,-0.98c0.16,-0.31 0.37,-0.58 0.65,-0.81c0.28,-0.24 0.63,-0.42 1.03,-0.56c0.4,-0.13 0.86,-0.2 1.36,-0.2c0.7,0 1.31,0.12 1.82,0.36c0.51,0.23 0.9,0.55 1.17,0.96c0.27,0.4 0.4,0.86 0.4,1.36l-1.88,0c0,-0.22 -0.06,-0.43 -0.17,-0.62c-0.11,-0.2 -0.28,-0.36 -0.5,-0.48c-0.22,-0.13 -0.51,-0.19 -0.84,-0.19c-0.33,0 -0.6,0.05 -0.81,0.16c-0.21,0.1 -0.36,0.23 -0.47,0.39c-0.1,0.16 -0.15,0.34 -0.15,0.53c0,0.14 0.03,0.27 0.08,0.38c0.06,0.11 0.15,0.21 0.28,0.31c0.13,0.09 0.31,0.17 0.53,0.25c0.23,0.08 0.52,0.15 0.86,0.22c0.65,0.14 1.2,0.31 1.67,0.53c0.47,0.21 0.83,0.48 1.08,0.81c0.25,0.33 0.37,0.74 0.37,1.25c0,0.37 -0.08,0.72 -0.24,1.03c-0.16,0.31 -0.39,0.58 -0.69,0.81c-0.3,0.22 -0.66,0.39 -1.08,0.52c-0.42,0.12 -0.89,0.19 -1.41,0.19c-0.77,0 -1.42,-0.14 -1.95,-0.41c-0.53,-0.28 -0.93,-0.63 -1.21,-1.05c-0.27,-0.44 -0.4,-0.88 -0.4,-1.35l1.82,0c0.02,0.35 0.11,0.63 0.29,0.84c0.17,0.2 0.39,0.35 0.65,0.44c0.27,0.09 0.54,0.14 0.82,0.14c0.34,0 0.62,-0.05 0.85,-0.14c0.23,-0.09 0.41,-0.22 0.53,-0.37c0.12,-0.16 0.18,-0.35 0.18,-0.55zm12.89,-6.16l1.71,0l0,8.22c0,0.76 -0.16,1.4 -0.49,1.93c-0.32,0.53 -0.77,0.94 -1.35,1.21c-0.58,0.29 -1.24,0.43 -2,0.43c-0.33,0 -0.69,-0.05 -1.08,-0.14c-0.39,-0.1 -0.77,-0.25 -1.14,-0.46c-0.37,-0.2 -0.67,-0.47 -0.92,-0.8l0.88,-1.11c0.31,0.36 0.64,0.62 1,0.79c0.37,0.16 0.75,0.25 1.15,0.25c0.44,0 0.8,-0.08 1.11,-0.25c0.3,-0.15 0.54,-0.38 0.71,-0.69c0.16,-0.31 0.25,-0.68 0.25,-1.13l0,-6.34l0.17,-1.91zm-5.74,4.32l0,-0.17c0,-0.64 0.07,-1.22 0.23,-1.75c0.16,-0.53 0.38,-0.98 0.67,-1.36c0.29,-0.39 0.65,-0.68 1.06,-0.89c0.42,-0.21 0.89,-0.31 1.42,-0.31c0.55,0 1.01,0.1 1.4,0.3c0.39,0.2 0.71,0.48 0.97,0.85c0.26,0.36 0.47,0.8 0.61,1.31c0.15,0.51 0.27,1.07 0.34,1.69l0,0.52c-0.07,0.61 -0.18,1.16 -0.35,1.66c-0.16,0.5 -0.37,0.93 -0.64,1.3c-0.26,0.36 -0.59,0.64 -0.98,0.84c-0.39,0.2 -0.84,0.3 -1.37,0.3c-0.51,0 -0.98,-0.11 -1.4,-0.32c-0.41,-0.22 -0.76,-0.52 -1.06,-0.9c-0.29,-0.39 -0.51,-0.84 -0.67,-1.36c-0.16,-0.53 -0.23,-1.1 -0.23,-1.71zm1.88,-0.17l0,0.17c0,0.38 0.03,0.74 0.11,1.08c0.08,0.33 0.19,0.62 0.35,0.88c0.16,0.25 0.36,0.45 0.61,0.59c0.25,0.14 0.54,0.21 0.88,0.21c0.44,0 0.81,-0.09 1.09,-0.28c0.28,-0.19 0.5,-0.44 0.65,-0.76c0.16,-0.32 0.27,-0.68 0.33,-1.07l0,-1.42c-0.03,-0.31 -0.09,-0.59 -0.19,-0.86c-0.1,-0.26 -0.22,-0.5 -0.39,-0.69c-0.16,-0.21 -0.36,-0.36 -0.61,-0.47c-0.24,-0.12 -0.53,-0.17 -0.86,-0.17c-0.34,0 -0.64,0.07 -0.89,0.21c-0.25,0.15 -0.45,0.35 -0.61,0.61c-0.16,0.25 -0.28,0.55 -0.35,0.89c-0.08,0.34 -0.12,0.7 -0.12,1.08zm11.25,4.46c-0.63,0 -1.19,-0.11 -1.7,-0.31c-0.5,-0.21 -0.92,-0.5 -1.28,-0.87c-0.35,-0.37 -0.62,-0.8 -0.8,-1.3c-0.19,-0.5 -0.28,-1.04 -0.28,-1.62l0,-0.31c0,-0.66 0.09,-1.26 0.28,-1.8c0.2,-0.53 0.47,-0.99 0.81,-1.37c0.34,-0.39 0.75,-0.68 1.22,-0.88c0.47,-0.21 0.97,-0.31 1.52,-0.31c0.61,0 1.13,0.1 1.59,0.31c0.45,0.2 0.83,0.48 1.12,0.85c0.3,0.37 0.53,0.8 0.67,1.31c0.16,0.5 0.23,1.06 0.23,1.67l0,0.81l-6.53,0l0,-1.36l4.67,0l0,-0.14c-0.01,-0.34 -0.08,-0.66 -0.2,-0.96c-0.12,-0.29 -0.31,-0.53 -0.56,-0.72c-0.25,-0.18 -0.58,-0.27 -1,-0.27c-0.31,0 -0.59,0.07 -0.83,0.2c-0.24,0.13 -0.44,0.32 -0.6,0.57c-0.16,0.25 -0.29,0.56 -0.38,0.91c-0.08,0.35 -0.12,0.74 -0.12,1.18l0,0.31c0,0.37 0.05,0.72 0.15,1.03c0.1,0.32 0.25,0.59 0.45,0.82c0.2,0.24 0.44,0.42 0.72,0.56c0.28,0.13 0.6,0.19 0.96,0.19c0.45,0 0.85,-0.09 1.21,-0.27c0.35,-0.18 0.66,-0.44 0.92,-0.77l0.99,0.96c-0.18,0.26 -0.42,0.52 -0.71,0.76c-0.29,0.24 -0.65,0.44 -1.07,0.59c-0.42,0.15 -0.9,0.23 -1.45,0.23zm8.72,-8.61l0,1.37l-4.76,0l0,-1.37l4.76,0zm-3.39,-2.07l1.89,0l0,8.18c0,0.26 0.03,0.46 0.11,0.61c0.07,0.13 0.18,0.22 0.32,0.27c0.13,0.05 0.29,0.07 0.47,0.07c0.13,0 0.26,-0.01 0.38,-0.02c0.12,-0.02 0.21,-0.04 0.29,-0.05l0.01,1.44c-0.16,0.04 -0.34,0.09 -0.55,0.12c-0.2,0.04 -0.44,0.06 -0.7,0.06c-0.44,0 -0.82,-0.08 -1.15,-0.23c-0.34,-0.16 -0.6,-0.41 -0.78,-0.76c-0.19,-0.35 -0.29,-0.81 -0.29,-1.39l0,-8.3zm8.84,-1.48l1.88,0l0,10.2l-0.18,1.8l-1.7,0l0,-12zm7.4,7.7l0,0.16c0,0.62 -0.07,1.2 -0.21,1.73c-0.14,0.52 -0.35,0.97 -0.63,1.36c-0.27,0.38 -0.62,0.68 -1.03,0.89c-0.4,0.21 -0.88,0.32 -1.41,0.32c-0.53,0 -0.99,-0.1 -1.38,-0.3c-0.39,-0.2 -0.72,-0.48 -0.98,-0.84c-0.26,-0.37 -0.47,-0.8 -0.63,-1.31c-0.17,-0.5 -0.28,-1.06 -0.35,-1.67l0,-0.52c0.07,-0.62 0.18,-1.18 0.35,-1.68c0.16,-0.5 0.37,-0.94 0.63,-1.3c0.26,-0.37 0.59,-0.65 0.97,-0.85c0.4,-0.2 0.85,-0.3 1.37,-0.3c0.54,0 1.02,0.1 1.43,0.31c0.42,0.21 0.76,0.51 1.04,0.89c0.28,0.38 0.48,0.84 0.62,1.36c0.14,0.53 0.21,1.11 0.21,1.75zm-1.88,0.16l0,-0.16c0,-0.38 -0.04,-0.74 -0.1,-1.08c-0.06,-0.33 -0.16,-0.63 -0.31,-0.89c-0.14,-0.25 -0.33,-0.45 -0.58,-0.6c-0.24,-0.15 -0.54,-0.22 -0.9,-0.22c-0.33,0 -0.62,0.05 -0.86,0.17c-0.24,0.11 -0.44,0.27 -0.6,0.47c-0.16,0.19 -0.29,0.42 -0.38,0.68c-0.09,0.26 -0.15,0.55 -0.18,0.85l0,1.41c0.05,0.39 0.15,0.75 0.3,1.08c0.15,0.32 0.37,0.58 0.65,0.78c0.28,0.19 0.65,0.29 1.09,0.29c0.35,0 0.64,-0.07 0.88,-0.21c0.24,-0.14 0.43,-0.34 0.57,-0.59c0.15,-0.25 0.25,-0.55 0.31,-0.89c0.07,-0.34 0.11,-0.7 0.11,-1.09zm7.2,4.3c-0.63,0 -1.19,-0.11 -1.7,-0.31c-0.5,-0.21 -0.92,-0.5 -1.28,-0.87c-0.35,-0.37 -0.61,-0.8 -0.8,-1.3c-0.19,-0.5 -0.28,-1.04 -0.28,-1.62l0,-0.31c0,-0.66 0.09,-1.26 0.29,-1.8c0.19,-0.53 0.46,-0.99 0.8,-1.37c0.34,-0.39 0.75,-0.68 1.22,-0.88c0.47,-0.21 0.98,-0.31 1.52,-0.31c0.61,0 1.14,0.1 1.59,0.31c0.45,0.2 0.83,0.48 1.12,0.85c0.31,0.37 0.53,0.8 0.68,1.31c0.15,0.5 0.22,1.06 0.22,1.67l0,0.81l-6.53,0l0,-1.36l4.67,0l0,-0.14c-0.01,-0.34 -0.08,-0.66 -0.2,-0.96c-0.12,-0.29 -0.31,-0.53 -0.56,-0.72c-0.25,-0.18 -0.58,-0.27 -1,-0.27c-0.31,0 -0.59,0.07 -0.83,0.2c-0.24,0.13 -0.44,0.32 -0.6,0.57c-0.16,0.25 -0.29,0.56 -0.38,0.91c-0.08,0.35 -0.12,0.74 -0.12,1.18l0,0.31c0,0.37 0.05,0.72 0.15,1.03c0.1,0.32 0.25,0.59 0.45,0.82c0.2,0.24 0.44,0.42 0.72,0.56c0.28,0.13 0.6,0.19 0.96,0.19c0.45,0 0.86,-0.09 1.21,-0.27c0.35,-0.18 0.66,-0.44 0.92,-0.77l0.99,0.96c-0.18,0.26 -0.42,0.52 -0.71,0.76c-0.29,0.24 -0.65,0.44 -1.07,0.59c-0.41,0.15 -0.9,0.23 -1.45,0.23zm8.73,-8.61l0,1.37l-4.77,0l0,-1.37l4.77,0zm-3.4,-2.07l1.89,0l0,8.18c0,0.26 0.03,0.46 0.11,0.61c0.08,0.13 0.18,0.22 0.32,0.27c0.13,0.05 0.29,0.07 0.47,0.07c0.13,0 0.26,-0.01 0.38,-0.02c0.12,-0.02 0.22,-0.04 0.29,-0.05l0.01,1.44c-0.16,0.04 -0.34,0.09 -0.55,0.12c-0.2,0.04 -0.44,0.06 -0.7,0.06c-0.44,0 -0.82,-0.08 -1.15,-0.23c-0.34,-0.16 -0.6,-0.41 -0.78,-0.76c-0.19,-0.35 -0.29,-0.81 -0.29,-1.39l0,-8.3zm8.72,2.07l0,1.37l-4.76,0l0,-1.37l4.76,0zm-3.39,-2.07l1.89,0l0,8.18c0,0.26 0.03,0.46 0.11,0.61c0.07,0.13 0.18,0.22 0.32,0.27c0.13,0.05 0.29,0.07 0.47,0.07c0.13,0 0.26,-0.01 0.38,-0.02c0.12,-0.02 0.21,-0.04 0.29,-0.05l0,1.44c-0.15,0.04 -0.33,0.09 -0.54,0.12c-0.21,0.04 -0.44,0.06 -0.71,0.06c-0.43,0 -0.81,-0.08 -1.14,-0.23c-0.34,-0.16 -0.6,-0.41 -0.79,-0.76c-0.18,-0.35 -0.28,-0.81 -0.28,-1.39l0,-8.3zm8.57,10.68c-0.62,0 -1.19,-0.11 -1.69,-0.31c-0.5,-0.21 -0.93,-0.5 -1.28,-0.87c-0.35,-0.37 -0.62,-0.8 -0.81,-1.3c-0.19,-0.5 -0.28,-1.04 -0.28,-1.62l0,-0.31c0,-0.66 0.1,-1.26 0.29,-1.8c0.19,-0.53 0.46,-0.99 0.8,-1.37c0.35,-0.39 0.75,-0.68 1.22,-0.88c0.47,-0.21 0.98,-0.31 1.53,-0.31c0.6,0 1.13,0.1 1.58,0.31c0.46,0.2 0.83,0.48 1.13,0.85c0.3,0.37 0.52,0.8 0.67,1.31c0.15,0.5 0.23,1.06 0.23,1.67l0,0.81l-6.53,0l0,-1.36l4.67,0l0,-0.14c-0.01,-0.34 -0.08,-0.66 -0.21,-0.96c-0.12,-0.29 -0.3,-0.53 -0.55,-0.72c-0.25,-0.18 -0.58,-0.27 -1,-0.27c-0.31,0 -0.59,0.07 -0.84,0.2c-0.24,0.13 -0.44,0.32 -0.6,0.57c-0.16,0.25 -0.28,0.56 -0.37,0.91c-0.09,0.35 -0.13,0.74 -0.13,1.18l0,0.31c0,0.37 0.05,0.72 0.15,1.03c0.1,0.32 0.26,0.59 0.45,0.82c0.2,0.24 0.44,0.42 0.72,0.56c0.28,0.13 0.6,0.19 0.96,0.19c0.46,0 0.86,-0.09 1.21,-0.27c0.36,-0.18 0.67,-0.44 0.93,-0.77l0.99,0.96c-0.18,0.26 -0.42,0.52 -0.71,0.76c-0.29,0.24 -0.65,0.44 -1.07,0.59c-0.42,0.15 -0.9,0.23 -1.46,0.23zm6.75,-7l0,6.84l-1.89,0l0,-8.45l1.8,0l0.09,1.61zm2.58,-1.67l-0.01,1.75c-0.12,-0.02 -0.24,-0.03 -0.38,-0.04c-0.13,-0.02 -0.26,-0.02 -0.39,-0.02c-0.32,0 -0.61,0.05 -0.85,0.14c-0.25,0.09 -0.45,0.22 -0.62,0.39c-0.16,0.17 -0.28,0.37 -0.37,0.61c-0.09,0.24 -0.14,0.51 -0.16,0.8l-0.43,0.04c0,-0.54 0.05,-1.03 0.16,-1.48c0.1,-0.45 0.26,-0.85 0.47,-1.2c0.21,-0.34 0.47,-0.61 0.79,-0.8c0.33,-0.19 0.7,-0.29 1.12,-0.29c0.11,0 0.24,0.01 0.37,0.03c0.13,0.02 0.23,0.05 0.3,0.07z"/>
   <path id="svg_21" fill="#FFD36F" d="m1081,1586.57l-4.41,2l0.54,-4.81l-3.26,-3.58l4.74,-0.97l2.39,-4.21l2.39,4.21l4.74,0.97l-3.26,3.58l0.54,4.81l-4.41,-2z" clip-rule="evenodd" fill-rule="evenodd"/>
   <path id="svg_22" fill="#FFD36F" d="m1061,1586.57l-4.41,2l0.54,-4.81l-3.26,-3.58l4.74,-0.97l2.39,-4.21l2.39,4.21l4.74,0.97l-3.26,3.58l0.54,4.81l-4.41,-2z" clip-rule="evenodd" fill-rule="evenodd"/>
   <path id="svg_23" fill="#FFD36F" d="m1041,1586.57l-4.41,2l0.54,-4.81l-3.26,-3.58l4.74,-0.97l2.39,-4.21l2.39,4.21l4.74,0.97l-3.26,3.58l0.54,4.81l-4.41,-2z" clip-rule="evenodd" fill-rule="evenodd"/>
   <path id="svg_24" fill="#FFD36F" d="m1021,1586.57l-4.41,2l0.54,-4.81l-3.26,-3.58l4.74,-0.97l2.39,-4.21l2.39,4.21l4.74,0.97l-3.26,3.58l0.54,4.81l-4.41,-2z" clip-rule="evenodd" fill-rule="evenodd"/>
   <path id="svg_25" fill="#FFD36F" d="m1001,1586.57l-4.408,2l0.539,-4.81l-3.264,-3.58l4.742,-0.97l2.391,-4.21l2.39,4.21l4.74,0.97l-3.26,3.58l0.54,4.81l-4.41,-2z" clip-rule="evenodd" fill-rule="evenodd"/>
   <path id="svg_26" stroke="#8989A2" d="m873,1606l336,0" opacity="0.48"/>
   <path id="svg_27" fill="#8989A2" d="m946.388,1626.37l-2.974,8.63l-1.798,0l3.746,-9.95l1.149,0l-0.123,1.32zm2.488,8.63l-2.98,-8.63l-0.13,-1.32l1.155,0l3.76,9.95l-1.805,0zm-0.144,-3.69l0,1.36l-5.414,0l0,-1.36l5.414,0zm4.663,-6.81l0,10.5l-1.655,0l0,-10.5l1.655,0zm3.459,4.51l0,5.99l-1.648,0l0,-7.4l1.572,0l0.076,1.41zm2.262,-1.45l-0.013,1.53c-0.101,-0.02 -0.21,-0.03 -0.329,-0.04c-0.114,-0.01 -0.227,-0.02 -0.341,-0.02c-0.283,0 -0.531,0.04 -0.745,0.13c-0.215,0.07 -0.395,0.19 -0.541,0.34c-0.141,0.14 -0.25,0.32 -0.328,0.53c-0.077,0.21 -0.123,0.44 -0.136,0.7l-0.376,0.03c0,-0.46 0.045,-0.89 0.136,-1.29c0.092,-0.4 0.228,-0.75 0.411,-1.05c0.186,-0.3 0.419,-0.53 0.697,-0.7c0.282,-0.17 0.608,-0.25 0.977,-0.25c0.101,0 0.208,0.01 0.322,0.02c0.118,0.02 0.207,0.04 0.266,0.07zm4.156,7.58c-0.546,0 -1.041,-0.09 -1.483,-0.27c-0.437,-0.18 -0.811,-0.44 -1.121,-0.76c-0.305,-0.32 -0.54,-0.7 -0.704,-1.14c-0.164,-0.44 -0.246,-0.91 -0.246,-1.42l0,-0.27c0,-0.58 0.084,-1.1 0.253,-1.57c0.168,-0.47 0.403,-0.87 0.704,-1.2c0.301,-0.34 0.656,-0.6 1.066,-0.78c0.41,-0.17 0.855,-0.26 1.333,-0.26c0.529,0 0.991,0.09 1.388,0.26c0.396,0.18 0.725,0.43 0.984,0.76c0.265,0.31 0.461,0.69 0.588,1.14c0.132,0.44 0.198,0.93 0.198,1.46l0,0.7l-5.714,0l0,-1.18l4.087,0l0,-0.13c-0.009,-0.29 -0.068,-0.57 -0.177,-0.83c-0.105,-0.26 -0.267,-0.47 -0.486,-0.63c-0.218,-0.16 -0.51,-0.24 -0.875,-0.24c-0.273,0 -0.517,0.06 -0.731,0.18c-0.21,0.11 -0.385,0.28 -0.526,0.5c-0.142,0.21 -0.251,0.48 -0.329,0.79c-0.072,0.3 -0.109,0.65 -0.109,1.03l0,0.27c0,0.33 0.043,0.63 0.13,0.91c0.091,0.27 0.223,0.51 0.396,0.71c0.174,0.21 0.383,0.37 0.629,0.49c0.246,0.11 0.527,0.17 0.841,0.17c0.397,0 0.75,-0.08 1.06,-0.24c0.31,-0.16 0.579,-0.38 0.806,-0.67l0.869,0.84c-0.16,0.23 -0.367,0.45 -0.623,0.67c-0.255,0.21 -0.567,0.38 -0.936,0.51c-0.365,0.13 -0.788,0.2 -1.272,0.2zm8.416,-1.62l0,-3.53c0,-0.27 -0.048,-0.49 -0.144,-0.68c-0.096,-0.2 -0.242,-0.34 -0.438,-0.45c-0.191,-0.1 -0.432,-0.16 -0.724,-0.16c-0.269,0 -0.501,0.05 -0.697,0.14c-0.196,0.09 -0.349,0.22 -0.458,0.37c-0.11,0.15 -0.165,0.33 -0.165,0.53l-1.64,0c0,-0.3 0.071,-0.58 0.212,-0.85c0.141,-0.27 0.346,-0.52 0.615,-0.73c0.269,-0.22 0.59,-0.39 0.964,-0.51c0.374,-0.12 0.793,-0.18 1.258,-0.18c0.556,0 1.048,0.09 1.476,0.28c0.433,0.18 0.773,0.47 1.019,0.84c0.25,0.38 0.376,0.85 0.376,1.41l0,3.29c0,0.34 0.023,0.64 0.068,0.91c0.05,0.26 0.121,0.49 0.212,0.69l0,0.11l-1.688,0c-0.078,-0.18 -0.139,-0.4 -0.185,-0.68c-0.041,-0.27 -0.061,-0.54 -0.061,-0.8zm0.239,-3.02l0.013,1.02l-1.182,0c-0.306,0 -0.574,0.03 -0.807,0.09c-0.232,0.05 -0.426,0.14 -0.581,0.25c-0.155,0.1 -0.271,0.24 -0.349,0.39c-0.077,0.16 -0.116,0.33 -0.116,0.53c0,0.19 0.046,0.37 0.137,0.54c0.091,0.16 0.223,0.28 0.396,0.37c0.178,0.1 0.392,0.14 0.643,0.14c0.337,0 0.631,-0.07 0.882,-0.2c0.255,-0.15 0.456,-0.32 0.601,-0.52c0.146,-0.2 0.224,-0.4 0.233,-0.58l0.533,0.73c-0.055,0.19 -0.148,0.39 -0.28,0.61c-0.132,0.21 -0.306,0.41 -0.52,0.61c-0.209,0.19 -0.462,0.35 -0.759,0.47c-0.291,0.13 -0.628,0.19 -1.011,0.19c-0.483,0 -0.914,-0.1 -1.292,-0.29c-0.378,-0.2 -0.675,-0.46 -0.889,-0.79c-0.214,-0.33 -0.321,-0.71 -0.321,-1.12c0,-0.4 0.073,-0.74 0.219,-1.04c0.15,-0.31 0.369,-0.56 0.656,-0.77c0.291,-0.2 0.647,-0.36 1.066,-0.46c0.419,-0.11 0.898,-0.17 1.436,-0.17l1.292,0zm7.649,2.97l0,-8.97l1.654,0l0,10.5l-1.497,0l-0.157,-1.53zm-4.812,-2.09l0,-0.14c0,-0.56 0.066,-1.07 0.198,-1.53c0.132,-0.47 0.323,-0.86 0.574,-1.2c0.251,-0.33 0.556,-0.59 0.916,-0.77c0.36,-0.18 0.766,-0.27 1.217,-0.27c0.447,0 0.838,0.08 1.176,0.26c0.337,0.17 0.624,0.42 0.861,0.74c0.237,0.32 0.426,0.7 0.567,1.15c0.142,0.44 0.242,0.93 0.301,1.48l0,0.45c-0.059,0.53 -0.159,1.02 -0.301,1.45c-0.141,0.44 -0.33,0.82 -0.567,1.14c-0.237,0.32 -0.526,0.56 -0.868,0.74c-0.337,0.17 -0.732,0.26 -1.183,0.26c-0.446,0 -0.85,-0.1 -1.21,-0.28c-0.355,-0.19 -0.658,-0.45 -0.909,-0.79c-0.251,-0.34 -0.442,-0.73 -0.574,-1.19c-0.132,-0.46 -0.198,-0.96 -0.198,-1.5zm1.647,-0.14l0,0.14c0,0.34 0.03,0.66 0.089,0.95c0.064,0.29 0.162,0.55 0.294,0.77c0.132,0.22 0.303,0.39 0.513,0.52c0.214,0.12 0.469,0.18 0.765,0.18c0.374,0 0.682,-0.08 0.923,-0.24c0.242,-0.17 0.431,-0.39 0.567,-0.67c0.142,-0.28 0.237,-0.59 0.288,-0.94l0,-1.24c-0.028,-0.27 -0.085,-0.52 -0.171,-0.75c-0.082,-0.23 -0.194,-0.43 -0.335,-0.61c-0.142,-0.17 -0.317,-0.31 -0.527,-0.41c-0.205,-0.1 -0.449,-0.15 -0.731,-0.15c-0.301,0 -0.556,0.07 -0.766,0.19c-0.209,0.13 -0.382,0.31 -0.519,0.53c-0.132,0.22 -0.23,0.48 -0.294,0.78c-0.064,0.3 -0.096,0.61 -0.096,0.95zm8.689,2.95l2.009,-6.59l1.764,0l-2.967,8.53c-0.068,0.18 -0.157,0.38 -0.266,0.59c-0.11,0.22 -0.253,0.42 -0.431,0.61c-0.173,0.2 -0.39,0.35 -0.649,0.47c-0.26,0.13 -0.575,0.19 -0.944,0.19c-0.146,0 -0.287,-0.02 -0.424,-0.04c-0.132,-0.03 -0.257,-0.05 -0.376,-0.08l-0.006,-1.26c0.045,0.01 0.1,0.01 0.164,0.02c0.068,0 0.123,0 0.164,0c0.273,0 0.501,-0.03 0.683,-0.1c0.183,-0.06 0.331,-0.17 0.445,-0.31c0.118,-0.15 0.218,-0.34 0.3,-0.59l0.534,-1.44zm-1.135,-6.59l1.757,5.54l0.294,1.74l-1.142,0.29l-2.686,-7.57l1.777,0zm10.965,-3.1l0,10.5l-1.641,0l0,-10.5l1.641,0zm-0.287,6.53l-0.534,-0.01c0.005,-0.51 0.076,-0.98 0.212,-1.41c0.142,-0.44 0.338,-0.81 0.588,-1.13c0.255,-0.33 0.561,-0.57 0.916,-0.75c0.356,-0.17 0.75,-0.26 1.183,-0.26c0.364,0 0.693,0.05 0.984,0.15c0.296,0.1 0.552,0.26 0.766,0.48c0.214,0.22 0.376,0.51 0.485,0.86c0.114,0.35 0.171,0.78 0.171,1.29l0,4.75l-1.654,0l0,-4.76c0,-0.36 -0.053,-0.64 -0.157,-0.85c-0.101,-0.21 -0.249,-0.36 -0.445,-0.45c-0.196,-0.1 -0.435,-0.15 -0.718,-0.15c-0.296,0 -0.558,0.06 -0.786,0.18c-0.223,0.12 -0.41,0.28 -0.56,0.49c-0.151,0.2 -0.265,0.44 -0.342,0.71c-0.073,0.27 -0.109,0.55 -0.109,0.86zm10.607,2.49l0,-3.53c0,-0.27 -0.05,-0.49 -0.14,-0.68c-0.1,-0.2 -0.24,-0.34 -0.44,-0.45c-0.19,-0.1 -0.43,-0.16 -0.72,-0.16c-0.27,0 -0.51,0.05 -0.7,0.14c-0.2,0.09 -0.35,0.22 -0.46,0.37c-0.11,0.15 -0.16,0.33 -0.16,0.53l-1.64,0c0,-0.3 0.07,-0.58 0.21,-0.85c0.14,-0.27 0.34,-0.52 0.61,-0.73c0.27,-0.22 0.59,-0.39 0.97,-0.51c0.37,-0.12 0.79,-0.18 1.26,-0.18c0.55,0 1.04,0.09 1.47,0.28c0.43,0.18 0.77,0.47 1.02,0.84c0.25,0.38 0.38,0.85 0.38,1.41l0,3.29c0,0.34 0.02,0.64 0.06,0.91c0.05,0.26 0.13,0.49 0.22,0.69l0,0.11l-1.69,0c-0.08,-0.18 -0.14,-0.4 -0.19,-0.68c-0.04,-0.27 -0.06,-0.54 -0.06,-0.8zm0.24,-3.02l0.01,1.02l-1.18,0c-0.3,0 -0.57,0.03 -0.8,0.09c-0.24,0.05 -0.43,0.14 -0.59,0.25c-0.15,0.1 -0.27,0.24 -0.34,0.39c-0.08,0.16 -0.12,0.33 -0.12,0.53c0,0.19 0.05,0.37 0.14,0.54c0.09,0.16 0.22,0.28 0.39,0.37c0.18,0.1 0.39,0.14 0.65,0.14c0.33,0 0.63,-0.07 0.88,-0.2c0.25,-0.15 0.45,-0.32 0.6,-0.52c0.14,-0.2 0.22,-0.4 0.23,-0.58l0.53,0.73c-0.05,0.19 -0.14,0.39 -0.28,0.61c-0.13,0.21 -0.3,0.41 -0.52,0.61c-0.2,0.19 -0.46,0.35 -0.75,0.47c-0.3,0.13 -0.63,0.19 -1.02,0.19c-0.48,0 -0.91,-0.1 -1.29,-0.29c-0.38,-0.2 -0.67,-0.46 -0.89,-0.79c-0.21,-0.33 -0.32,-0.71 -0.32,-1.12c0,-0.4 0.08,-0.74 0.22,-1.04c0.15,-0.31 0.37,-0.56 0.66,-0.77c0.29,-0.2 0.64,-0.36 1.06,-0.46c0.42,-0.11 0.9,-0.17 1.44,-0.17l1.29,0zm5.44,3.19l1.81,-6.09l1.71,0l-2.57,7.4l-1.07,0l0.12,-1.31zm-1.39,-6.09l1.84,6.12l0.09,1.28l-1.06,0l-2.59,-7.4l1.72,0zm9.09,7.54c-0.55,0 -1.04,-0.09 -1.48,-0.27c-0.44,-0.18 -0.81,-0.44 -1.12,-0.76c-0.31,-0.32 -0.54,-0.7 -0.71,-1.14c-0.16,-0.44 -0.24,-0.91 -0.24,-1.42l0,-0.27c0,-0.58 0.08,-1.1 0.25,-1.57c0.17,-0.47 0.4,-0.87 0.7,-1.2c0.3,-0.34 0.66,-0.6 1.07,-0.78c0.41,-0.17 0.85,-0.26 1.33,-0.26c0.53,0 0.99,0.09 1.39,0.26c0.4,0.18 0.72,0.43 0.98,0.76c0.27,0.31 0.46,0.69 0.59,1.14c0.13,0.44 0.2,0.93 0.2,1.46l0,0.7l-5.71,0l0,-1.18l4.08,0l0,-0.13c-0.01,-0.29 -0.07,-0.57 -0.17,-0.83c-0.11,-0.26 -0.27,-0.47 -0.49,-0.63c-0.22,-0.16 -0.51,-0.24 -0.88,-0.24c-0.27,0 -0.51,0.06 -0.73,0.18c-0.21,0.11 -0.38,0.28 -0.52,0.5c-0.14,0.21 -0.25,0.48 -0.33,0.79c-0.07,0.3 -0.11,0.65 -0.11,1.03l0,0.27c0,0.33 0.04,0.63 0.13,0.91c0.09,0.27 0.22,0.51 0.4,0.71c0.17,0.21 0.38,0.37 0.62,0.49c0.25,0.11 0.53,0.17 0.85,0.17c0.39,0 0.75,-0.08 1.06,-0.24c0.31,-0.16 0.57,-0.38 0.8,-0.67l0.87,0.84c-0.16,0.23 -0.37,0.45 -0.62,0.67c-0.26,0.21 -0.57,0.38 -0.94,0.51c-0.36,0.13 -0.79,0.2 -1.27,0.2zm11.9,-1.62l0,-3.53c0,-0.27 -0.05,-0.49 -0.14,-0.68c-0.1,-0.2 -0.24,-0.34 -0.44,-0.45c-0.19,-0.1 -0.43,-0.16 -0.72,-0.16c-0.27,0 -0.51,0.05 -0.7,0.14c-0.2,0.09 -0.35,0.22 -0.46,0.37c-0.11,0.15 -0.16,0.33 -0.16,0.53l-1.64,0c0,-0.3 0.07,-0.58 0.21,-0.85c0.14,-0.27 0.34,-0.52 0.61,-0.73c0.27,-0.22 0.59,-0.39 0.97,-0.51c0.37,-0.12 0.79,-0.18 1.25,-0.18c0.56,0 1.05,0.09 1.48,0.28c0.43,0.18 0.77,0.47 1.02,0.84c0.25,0.38 0.38,0.85 0.38,1.41l0,3.29c0,0.34 0.02,0.64 0.06,0.91c0.05,0.26 0.12,0.49 0.22,0.69l0,0.11l-1.69,0c-0.08,-0.18 -0.14,-0.4 -0.19,-0.68c-0.04,-0.27 -0.06,-0.54 -0.06,-0.8zm0.24,-3.02l0.01,1.02l-1.18,0c-0.3,0 -0.57,0.03 -0.81,0.09c-0.23,0.05 -0.42,0.14 -0.58,0.25c-0.15,0.1 -0.27,0.24 -0.34,0.39c-0.08,0.16 -0.12,0.33 -0.12,0.53c0,0.19 0.04,0.37 0.14,0.54c0.09,0.16 0.22,0.28 0.39,0.37c0.18,0.1 0.39,0.14 0.64,0.14c0.34,0 0.64,-0.07 0.89,-0.2c0.25,-0.15 0.45,-0.32 0.6,-0.52c0.14,-0.2 0.22,-0.4 0.23,-0.58l0.53,0.73c-0.05,0.19 -0.14,0.39 -0.28,0.61c-0.13,0.21 -0.3,0.41 -0.52,0.61c-0.21,0.19 -0.46,0.35 -0.75,0.47c-0.3,0.13 -0.63,0.19 -1.02,0.19c-0.48,0 -0.91,-0.1 -1.29,-0.29c-0.38,-0.2 -0.67,-0.46 -0.89,-0.79c-0.21,-0.33 -0.32,-0.71 -0.32,-1.12c0,-0.4 0.07,-0.74 0.22,-1.04c0.15,-0.31 0.37,-0.56 0.66,-0.77c0.29,-0.2 0.64,-0.36 1.06,-0.46c0.42,-0.11 0.9,-0.17 1.44,-0.17l1.29,0zm4.77,-1.32l0,5.82l-1.65,0l0,-7.4l1.56,0l0.09,1.58zm-0.29,1.85l-0.54,-0.01c0.01,-0.52 0.08,-1 0.22,-1.44c0.15,-0.44 0.35,-0.81 0.61,-1.13c0.25,-0.31 0.56,-0.55 0.92,-0.72c0.36,-0.18 0.77,-0.26 1.21,-0.26c0.35,0 0.67,0.05 0.96,0.15c0.29,0.09 0.54,0.25 0.75,0.47c0.21,0.22 0.37,0.5 0.48,0.85c0.1,0.35 0.16,0.78 0.16,1.28l0,4.78l-1.65,0l0,-4.79c0,-0.35 -0.06,-0.63 -0.16,-0.84c-0.1,-0.21 -0.25,-0.35 -0.45,-0.44c-0.19,-0.09 -0.43,-0.14 -0.71,-0.14c-0.29,0 -0.54,0.06 -0.76,0.18c-0.23,0.12 -0.42,0.28 -0.57,0.49c-0.15,0.2 -0.27,0.44 -0.35,0.71c-0.08,0.27 -0.12,0.55 -0.12,0.86zm14.11,2.49l0,-3.53c0,-0.27 -0.05,-0.49 -0.15,-0.68c-0.09,-0.2 -0.24,-0.34 -0.43,-0.45c-0.2,-0.1 -0.44,-0.16 -0.73,-0.16c-0.27,0 -0.5,0.05 -0.7,0.14c-0.19,0.09 -0.34,0.22 -0.45,0.37c-0.11,0.15 -0.17,0.33 -0.17,0.53l-1.64,0c0,-0.3 0.07,-0.58 0.21,-0.85c0.14,-0.27 0.35,-0.52 0.62,-0.73c0.27,-0.22 0.59,-0.39 0.96,-0.51c0.38,-0.12 0.8,-0.18 1.26,-0.18c0.56,0 1.05,0.09 1.48,0.28c0.43,0.18 0.77,0.47 1.02,0.84c0.25,0.38 0.37,0.85 0.37,1.41l0,3.29c0,0.34 0.02,0.64 0.07,0.91c0.05,0.26 0.12,0.49 0.21,0.69l0,0.11l-1.69,0c-0.07,-0.18 -0.14,-0.4 -0.18,-0.68c-0.04,-0.27 -0.06,-0.54 -0.06,-0.8zm0.24,-3.02l0.01,1.02l-1.18,0c-0.31,0 -0.58,0.03 -0.81,0.09c-0.23,0.05 -0.43,0.14 -0.58,0.25c-0.15,0.1 -0.27,0.24 -0.35,0.39c-0.08,0.16 -0.11,0.33 -0.11,0.53c0,0.19 0.04,0.37 0.13,0.54c0.09,0.16 0.23,0.28 0.4,0.37c0.18,0.1 0.39,0.14 0.64,0.14c0.34,0 0.63,-0.07 0.88,-0.2c0.26,-0.15 0.46,-0.32 0.6,-0.52c0.15,-0.2 0.23,-0.4 0.24,-0.58l0.53,0.73c-0.05,0.19 -0.15,0.39 -0.28,0.61c-0.13,0.21 -0.31,0.41 -0.52,0.61c-0.21,0.19 -0.46,0.35 -0.76,0.47c-0.29,0.13 -0.63,0.19 -1.01,0.19c-0.48,0 -0.91,-0.1 -1.29,-0.29c-0.38,-0.2 -0.68,-0.46 -0.89,-0.79c-0.22,-0.33 -0.32,-0.71 -0.32,-1.12c0,-0.4 0.07,-0.74 0.22,-1.04c0.15,-0.31 0.37,-0.56 0.65,-0.77c0.29,-0.2 0.65,-0.36 1.07,-0.46c0.42,-0.11 0.9,-0.17 1.43,-0.17l1.3,0zm6.16,3.32c0.26,0 0.51,-0.05 0.72,-0.15c0.22,-0.11 0.39,-0.26 0.53,-0.45c0.13,-0.2 0.21,-0.42 0.22,-0.67l1.55,0c0,0.48 -0.15,0.92 -0.42,1.31c-0.27,0.39 -0.64,0.7 -1.09,0.93c-0.45,0.23 -0.95,0.35 -1.49,0.35c-0.57,0 -1.06,-0.1 -1.48,-0.29c-0.42,-0.2 -0.77,-0.47 -1.05,-0.81c-0.27,-0.34 -0.48,-0.73 -0.63,-1.18c-0.13,-0.45 -0.2,-0.92 -0.2,-1.44l0,-0.23c0,-0.51 0.07,-0.99 0.2,-1.44c0.15,-0.45 0.36,-0.85 0.63,-1.19c0.28,-0.34 0.63,-0.61 1.05,-0.8c0.42,-0.2 0.91,-0.29 1.47,-0.29c0.59,0 1.11,0.12 1.56,0.35c0.44,0.23 0.8,0.56 1.05,0.98c0.26,0.41 0.4,0.9 0.4,1.45l-1.55,0c-0.01,-0.27 -0.08,-0.52 -0.2,-0.74c-0.12,-0.22 -0.29,-0.4 -0.51,-0.53c-0.21,-0.13 -0.47,-0.2 -0.77,-0.2c-0.33,0 -0.61,0.07 -0.83,0.2c-0.22,0.14 -0.39,0.32 -0.51,0.55c-0.12,0.23 -0.21,0.49 -0.27,0.77c-0.05,0.29 -0.07,0.58 -0.07,0.89l0,0.23c0,0.31 0.02,0.61 0.07,0.89c0.05,0.29 0.14,0.55 0.26,0.78c0.13,0.22 0.3,0.4 0.52,0.54c0.22,0.13 0.5,0.19 0.84,0.19zm7.31,0c0.27,0 0.51,-0.05 0.72,-0.15c0.22,-0.11 0.4,-0.26 0.53,-0.45c0.14,-0.2 0.21,-0.42 0.23,-0.67l1.55,0c-0.01,0.48 -0.15,0.92 -0.43,1.31c-0.27,0.39 -0.63,0.7 -1.08,0.93c-0.45,0.23 -0.95,0.35 -1.5,0.35c-0.56,0 -1.06,-0.1 -1.48,-0.29c-0.42,-0.2 -0.76,-0.47 -1.04,-0.81c-0.28,-0.34 -0.49,-0.73 -0.63,-1.18c-0.14,-0.45 -0.21,-0.92 -0.21,-1.44l0,-0.23c0,-0.51 0.07,-0.99 0.21,-1.44c0.14,-0.45 0.35,-0.85 0.63,-1.19c0.28,-0.34 0.62,-0.61 1.04,-0.8c0.42,-0.2 0.91,-0.29 1.47,-0.29c0.6,0 1.12,0.12 1.56,0.35c0.45,0.23 0.8,0.56 1.06,0.98c0.26,0.41 0.39,0.9 0.4,1.45l-1.55,0c-0.02,-0.27 -0.09,-0.52 -0.21,-0.74c-0.12,-0.22 -0.29,-0.4 -0.5,-0.53c-0.22,-0.13 -0.48,-0.2 -0.78,-0.2c-0.33,0 -0.6,0.07 -0.82,0.2c-0.22,0.14 -0.39,0.32 -0.52,0.55c-0.12,0.23 -0.21,0.49 -0.26,0.77c-0.05,0.29 -0.08,0.58 -0.08,0.89l0,0.23c0,0.31 0.03,0.61 0.08,0.89c0.05,0.29 0.13,0.55 0.26,0.78c0.12,0.22 0.3,0.4 0.52,0.54c0.22,0.13 0.49,0.19 0.83,0.19zm3.98,-2.44l0,-0.15c0,-0.54 0.08,-1.03 0.23,-1.49c0.16,-0.46 0.38,-0.86 0.67,-1.19c0.3,-0.34 0.66,-0.61 1.08,-0.8c0.43,-0.19 0.91,-0.28 1.45,-0.28c0.54,0 1.03,0.09 1.45,0.28c0.43,0.19 0.79,0.46 1.09,0.8c0.29,0.33 0.52,0.73 0.67,1.19c0.16,0.46 0.24,0.95 0.24,1.49l0,0.15c0,0.54 -0.08,1.03 -0.24,1.49c-0.15,0.45 -0.38,0.85 -0.67,1.19c-0.3,0.34 -0.66,0.61 -1.08,0.8c-0.43,0.18 -0.91,0.28 -1.45,0.28c-0.54,0 -1.02,-0.1 -1.45,-0.28c-0.43,-0.19 -0.79,-0.46 -1.08,-0.8c-0.3,-0.34 -0.52,-0.74 -0.68,-1.19c-0.15,-0.46 -0.23,-0.95 -0.23,-1.49zm1.65,-0.15l0,0.15c0,0.34 0.03,0.65 0.1,0.95c0.07,0.29 0.17,0.55 0.32,0.78c0.15,0.22 0.33,0.4 0.56,0.52c0.23,0.13 0.5,0.19 0.81,0.19c0.31,0 0.57,-0.06 0.8,-0.19c0.22,-0.12 0.41,-0.3 0.56,-0.52c0.14,-0.23 0.25,-0.49 0.32,-0.78c0.07,-0.3 0.11,-0.61 0.11,-0.95l0,-0.15c0,-0.33 -0.04,-0.64 -0.11,-0.93c-0.07,-0.3 -0.18,-0.56 -0.33,-0.79c-0.15,-0.23 -0.33,-0.4 -0.56,-0.53c-0.22,-0.13 -0.49,-0.2 -0.8,-0.2c-0.31,0 -0.58,0.07 -0.81,0.2c-0.22,0.13 -0.4,0.3 -0.55,0.53c-0.15,0.23 -0.25,0.49 -0.32,0.79c-0.07,0.29 -0.1,0.6 -0.1,0.93zm11.06,2.03l0,-5.66l1.65,0l0,7.4l-1.56,0l-0.09,-1.74zm0.23,-1.54l0.55,-0.01c0,0.49 -0.05,0.95 -0.16,1.37c-0.11,0.41 -0.28,0.78 -0.51,1.09c-0.22,0.3 -0.52,0.54 -0.87,0.71c-0.36,0.17 -0.78,0.26 -1.28,0.26c-0.36,0 -0.69,-0.06 -0.99,-0.16c-0.3,-0.11 -0.56,-0.27 -0.78,-0.49c-0.21,-0.21 -0.38,-0.5 -0.5,-0.85c-0.12,-0.35 -0.18,-0.77 -0.18,-1.26l0,-4.78l1.65,0l0,4.8c0,0.26 0.03,0.49 0.1,0.67c0.06,0.18 0.15,0.32 0.26,0.43c0.1,0.11 0.23,0.19 0.38,0.24c0.14,0.04 0.3,0.06 0.46,0.06c0.47,0 0.84,-0.09 1.11,-0.27c0.27,-0.19 0.47,-0.44 0.58,-0.75c0.12,-0.32 0.18,-0.67 0.18,-1.06zm4.74,-2.54l0,5.82l-1.64,0l0,-7.4l1.55,0l0.09,1.58zm-0.29,1.85l-0.53,-0.01c0,-0.52 0.07,-1 0.21,-1.44c0.15,-0.44 0.35,-0.81 0.61,-1.13c0.26,-0.31 0.57,-0.55 0.93,-0.72c0.36,-0.18 0.76,-0.26 1.2,-0.26c0.35,0 0.68,0.05 0.96,0.15c0.29,0.09 0.54,0.25 0.75,0.47c0.21,0.22 0.37,0.5 0.48,0.85c0.11,0.35 0.16,0.78 0.16,1.28l0,4.78l-1.65,0l0,-4.79c0,-0.35 -0.06,-0.63 -0.16,-0.84c-0.1,-0.21 -0.25,-0.35 -0.44,-0.44c-0.2,-0.09 -0.44,-0.14 -0.72,-0.14c-0.29,0 -0.54,0.06 -0.76,0.18c-0.22,0.12 -0.41,0.28 -0.57,0.49c-0.15,0.2 -0.27,0.44 -0.35,0.71c-0.08,0.27 -0.12,0.55 -0.12,0.86zm9.84,-3.43l0,1.21l-4.17,0l0,-1.21l4.17,0zm-2.96,-1.81l1.64,0l0,7.17c0,0.22 0.04,0.4 0.1,0.52c0.07,0.12 0.16,0.2 0.28,0.24c0.12,0.04 0.26,0.06 0.42,0.06c0.11,0 0.22,0 0.32,-0.02c0.11,-0.01 0.19,-0.02 0.26,-0.04l0,1.26c-0.13,0.04 -0.29,0.08 -0.47,0.11c-0.18,0.03 -0.39,0.05 -0.62,0.05c-0.38,0 -0.71,-0.07 -1,-0.2c-0.3,-0.14 -0.52,-0.36 -0.69,-0.66c-0.16,-0.31 -0.24,-0.72 -0.24,-1.22l0,-7.27zm7.32,6.28l-1.53,0c0.01,-0.43 0.04,-0.78 0.11,-1.07c0.07,-0.29 0.18,-0.56 0.34,-0.79c0.17,-0.24 0.38,-0.49 0.65,-0.75c0.21,-0.2 0.4,-0.39 0.57,-0.57c0.17,-0.18 0.3,-0.38 0.4,-0.58c0.1,-0.2 0.15,-0.44 0.15,-0.7c0,-0.29 -0.04,-0.53 -0.14,-0.73c-0.09,-0.2 -0.24,-0.35 -0.42,-0.46c-0.18,-0.1 -0.41,-0.16 -0.69,-0.16c-0.22,0 -0.44,0.05 -0.64,0.14c-0.2,0.09 -0.36,0.22 -0.48,0.41c-0.13,0.18 -0.19,0.42 -0.2,0.73l-1.65,0c0.01,-0.58 0.15,-1.06 0.41,-1.45c0.26,-0.4 0.62,-0.69 1.07,-0.89c0.44,-0.19 0.94,-0.29 1.49,-0.29c0.61,0 1.14,0.1 1.57,0.31c0.43,0.21 0.76,0.51 0.99,0.91c0.23,0.39 0.35,0.86 0.35,1.42c0,0.4 -0.08,0.76 -0.24,1.09c-0.16,0.33 -0.37,0.63 -0.62,0.91c-0.26,0.28 -0.53,0.56 -0.83,0.84c-0.25,0.23 -0.43,0.48 -0.52,0.75c-0.09,0.27 -0.14,0.58 -0.14,0.93zm-1.66,2.13c0,-0.25 0.08,-0.45 0.25,-0.62c0.17,-0.18 0.4,-0.26 0.69,-0.26c0.29,0 0.52,0.08 0.69,0.26c0.17,0.17 0.25,0.37 0.25,0.62c0,0.25 -0.08,0.46 -0.25,0.63c-0.17,0.17 -0.4,0.25 -0.69,0.25c-0.29,0 -0.52,-0.08 -0.69,-0.25c-0.17,-0.17 -0.25,-0.38 -0.25,-0.63z"/>
   <path id="svg_28" fill="#722ED1" d="m1112.25,1633.64l0,1.36l-5,0l0,-1.36l5,0zm-4.52,-8.59l0,9.95l-1.72,0l0,-9.95l1.72,0zm5.37,6.33l0,-0.15c0,-0.54 0.07,-1.03 0.23,-1.49c0.15,-0.46 0.38,-0.86 0.67,-1.19c0.29,-0.34 0.65,-0.61 1.08,-0.8c0.43,-0.19 0.91,-0.28 1.45,-0.28c0.54,0 1.02,0.09 1.45,0.28c0.42,0.19 0.79,0.46 1.08,0.8c0.3,0.33 0.53,0.73 0.68,1.19c0.16,0.46 0.23,0.95 0.23,1.49l0,0.15c0,0.54 -0.07,1.03 -0.23,1.49c-0.15,0.45 -0.38,0.85 -0.68,1.19c-0.29,0.34 -0.65,0.61 -1.08,0.8c-0.42,0.18 -0.9,0.28 -1.44,0.28c-0.54,0 -1.03,-0.1 -1.46,-0.28c-0.42,-0.19 -0.78,-0.46 -1.08,-0.8c-0.29,-0.34 -0.52,-0.74 -0.67,-1.19c-0.16,-0.46 -0.23,-0.95 -0.23,-1.49zm1.64,-0.15l0,0.15c0,0.34 0.04,0.65 0.11,0.95c0.06,0.29 0.17,0.55 0.32,0.78c0.14,0.22 0.33,0.4 0.56,0.52c0.23,0.13 0.5,0.19 0.81,0.19c0.31,0 0.57,-0.06 0.79,-0.19c0.23,-0.12 0.42,-0.3 0.56,-0.52c0.15,-0.23 0.26,-0.49 0.33,-0.78c0.07,-0.3 0.11,-0.61 0.11,-0.95l0,-0.15c0,-0.33 -0.04,-0.64 -0.11,-0.93c-0.07,-0.3 -0.18,-0.56 -0.33,-0.79c-0.15,-0.23 -0.33,-0.4 -0.56,-0.53c-0.23,-0.13 -0.49,-0.2 -0.8,-0.2c-0.31,0 -0.58,0.07 -0.81,0.2c-0.22,0.13 -0.41,0.3 -0.55,0.53c-0.15,0.23 -0.26,0.49 -0.32,0.79c-0.07,0.29 -0.11,0.6 -0.11,0.93zm11.35,-3.63l1.5,0l0,7.19c0,0.67 -0.14,1.24 -0.43,1.7c-0.28,0.47 -0.67,0.82 -1.18,1.06c-0.5,0.25 -1.09,0.37 -1.76,0.37c-0.28,0 -0.59,-0.04 -0.94,-0.12c-0.34,-0.09 -0.67,-0.22 -1,-0.4c-0.32,-0.18 -0.58,-0.41 -0.8,-0.7l0.78,-0.98c0.26,0.32 0.55,0.55 0.87,0.7c0.32,0.14 0.65,0.21 1.01,0.21c0.37,0 0.7,-0.07 0.96,-0.21c0.27,-0.13 0.48,-0.34 0.62,-0.61c0.15,-0.27 0.22,-0.59 0.22,-0.98l0,-5.55l0.15,-1.68zm-5.02,3.78l0,-0.14c0,-0.56 0.06,-1.07 0.2,-1.53c0.14,-0.47 0.33,-0.86 0.59,-1.2c0.25,-0.33 0.56,-0.59 0.93,-0.77c0.36,-0.18 0.78,-0.27 1.24,-0.27c0.47,0 0.88,0.08 1.22,0.26c0.34,0.17 0.63,0.42 0.85,0.74c0.23,0.32 0.41,0.7 0.54,1.15c0.13,0.44 0.23,0.93 0.29,1.48l0,0.45c-0.06,0.53 -0.16,1.02 -0.3,1.45c-0.14,0.44 -0.33,0.82 -0.56,1.14c-0.23,0.32 -0.52,0.56 -0.86,0.74c-0.34,0.17 -0.74,0.26 -1.2,0.26c-0.45,0 -0.86,-0.1 -1.22,-0.28c-0.36,-0.19 -0.67,-0.45 -0.93,-0.79c-0.26,-0.34 -0.45,-0.73 -0.59,-1.19c-0.14,-0.46 -0.2,-0.96 -0.2,-1.5zm1.64,-0.14l0,0.14c0,0.34 0.04,0.66 0.1,0.95c0.07,0.29 0.17,0.55 0.31,0.77c0.14,0.22 0.32,0.39 0.53,0.52c0.22,0.12 0.48,0.18 0.77,0.18c0.39,0 0.71,-0.08 0.95,-0.24c0.25,-0.17 0.45,-0.39 0.58,-0.67c0.13,-0.28 0.23,-0.59 0.28,-0.94l0,-1.24c-0.02,-0.27 -0.08,-0.52 -0.17,-0.75c-0.08,-0.23 -0.19,-0.43 -0.33,-0.61c-0.14,-0.17 -0.32,-0.31 -0.53,-0.41c-0.22,-0.1 -0.47,-0.15 -0.76,-0.15c-0.3,0 -0.56,0.07 -0.78,0.19c-0.21,0.13 -0.39,0.31 -0.54,0.53c-0.13,0.22 -0.24,0.48 -0.3,0.78c-0.07,0.3 -0.11,0.61 -0.11,0.95zm8.35,-3.64l0,7.4l-1.65,0l0,-7.4l1.65,0zm-1.76,-1.94c0,-0.25 0.08,-0.46 0.24,-0.62c0.17,-0.17 0.4,-0.25 0.7,-0.25c0.29,0 0.52,0.08 0.69,0.25c0.17,0.16 0.25,0.37 0.25,0.62c0,0.25 -0.08,0.45 -0.25,0.62c-0.17,0.16 -0.4,0.24 -0.69,0.24c-0.3,0 -0.53,-0.08 -0.7,-0.24c-0.16,-0.17 -0.24,-0.37 -0.24,-0.62zm5.2,3.52l0,5.82l-1.65,0l0,-7.4l1.55,0l0.1,1.58zm-0.29,1.85l-0.54,-0.01c0.01,-0.52 0.08,-1 0.22,-1.44c0.15,-0.44 0.35,-0.81 0.6,-1.13c0.26,-0.31 0.57,-0.55 0.93,-0.72c0.36,-0.18 0.76,-0.26 1.2,-0.26c0.36,0 0.68,0.05 0.97,0.15c0.29,0.09 0.54,0.25 0.74,0.47c0.21,0.22 0.37,0.5 0.48,0.85c0.11,0.35 0.17,0.78 0.17,1.28l0,4.78l-1.66,0l0,-4.79c0,-0.35 -0.05,-0.63 -0.15,-0.84c-0.11,-0.21 -0.25,-0.35 -0.45,-0.44c-0.19,-0.09 -0.43,-0.14 -0.72,-0.14c-0.28,0 -0.53,0.06 -0.76,0.18c-0.22,0.12 -0.41,0.28 -0.56,0.49c-0.15,0.2 -0.27,0.44 -0.35,0.71c-0.08,0.27 -0.12,0.55 -0.12,0.86z"/>
  </g>
  <path id="svg_32" fill="#8989A2" d="m594.204,1493.5c1.12,0 2.216,0.33 3.147,0.96c0.932,0.62 1.658,1.5 2.087,2.54c0.428,1.03 0.541,2.17 0.322,3.27c-0.219,1.1 -0.758,2.11 -1.55,2.9c-0.793,0.79 -1.802,1.33 -2.901,1.55c-1.099,0.22 -2.238,0.11 -3.273,-0.32c-1.035,-0.43 -1.92,-1.15 -2.542,-2.09c-0.623,-0.93 -0.955,-2.02 -0.955,-3.14c0,-1.51 0.597,-2.95 1.659,-4.01c1.062,-1.06 2.503,-1.66 4.006,-1.66z"/>
  <path id="svg_37" stroke="#D6D6D6" d="m599,1408l144,0"/>
  <path id="svg_40" fill="#8794BA" d="m656.968,1905.1l0,3.9l-1.313,0l0,-9.95l3.671,0c1.089,0 1.942,0.27 2.557,0.83c0.62,0.56 0.929,1.29 0.929,2.21c0,0.97 -0.303,1.71 -0.909,2.23c-0.601,0.52 -1.465,0.78 -2.591,0.78l-2.344,0zm0,-1.07l2.358,0c0.702,0 1.24,-0.16 1.613,-0.49c0.374,-0.33 0.561,-0.81 0.561,-1.44c0,-0.59 -0.187,-1.06 -0.561,-1.42c-0.373,-0.35 -0.886,-0.54 -1.538,-0.55l-2.433,0l0,3.9zm10.896,-1.29c-0.191,-0.03 -0.399,-0.05 -0.622,-0.05c-0.829,0 -1.392,0.35 -1.688,1.06l0,5.25l-1.265,0l0,-7.4l1.231,0l0.02,0.86c0.415,-0.66 1.003,-0.99 1.764,-0.99c0.246,0 0.433,0.03 0.56,0.09l0,1.18zm0.698,2.49c0,-0.72 0.141,-1.37 0.423,-1.95c0.287,-0.58 0.684,-1.03 1.19,-1.34c0.51,-0.32 1.091,-0.47 1.743,-0.47c1.007,0 1.821,0.35 2.44,1.04c0.625,0.7 0.937,1.63 0.937,2.78l0,0.09c0,0.72 -0.139,1.37 -0.417,1.95c-0.274,0.56 -0.668,1.01 -1.183,1.33c-0.51,0.32 -1.098,0.48 -1.763,0.48c-1.003,0 -1.816,-0.35 -2.441,-1.05c-0.62,-0.7 -0.929,-1.62 -0.929,-2.77l0,-0.09zm1.271,0.15c0,0.82 0.189,1.48 0.567,1.98c0.383,0.5 0.894,0.74 1.532,0.74c0.642,0 1.153,-0.25 1.531,-0.75c0.378,-0.5 0.567,-1.21 0.567,-2.12c0,-0.81 -0.193,-1.46 -0.581,-1.97c-0.383,-0.5 -0.893,-0.75 -1.531,-0.75c-0.624,0 -1.128,0.24 -1.511,0.74c-0.383,0.5 -0.574,1.21 -0.574,2.13zm6.74,-0.14c0,-1.13 0.269,-2.05 0.807,-2.73c0.538,-0.7 1.242,-1.04 2.112,-1.04c0.866,0 1.552,0.29 2.058,0.89l0,-3.86l1.264,0l0,10.5l-1.162,0l-0.061,-0.79c-0.506,0.62 -1.21,0.93 -2.112,0.93c-0.857,0 -1.557,-0.35 -2.099,-1.06c-0.538,-0.7 -0.807,-1.61 -0.807,-2.74l0,-0.1zm1.265,0.14c0,0.84 0.173,1.5 0.519,1.97c0.347,0.48 0.825,0.71 1.436,0.71c0.802,0 1.388,-0.36 1.757,-1.08l0,-3.39c-0.378,-0.7 -0.96,-1.05 -1.743,-1.05c-0.62,0 -1.103,0.24 -1.45,0.72c-0.346,0.48 -0.519,1.18 -0.519,2.12zm11.512,2.89c-0.493,0.58 -1.215,0.87 -2.167,0.87c-0.789,0 -1.39,-0.23 -1.805,-0.69c-0.41,-0.46 -0.618,-1.14 -0.622,-2.03l0,-4.82l1.265,0l0,4.78c0,1.12 0.455,1.68 1.367,1.68c0.966,0 1.608,-0.36 1.927,-1.08l0,-5.38l1.265,0l0,7.4l-1.203,0l-0.027,-0.73zm6.125,-0.17c0.451,0 0.845,-0.13 1.182,-0.41c0.337,-0.27 0.524,-0.61 0.561,-1.02l1.196,0c-0.023,0.42 -0.169,0.83 -0.437,1.21c-0.269,0.38 -0.629,0.69 -1.081,0.91c-0.446,0.23 -0.92,0.35 -1.421,0.35c-1.008,0 -1.81,-0.34 -2.407,-1.01c-0.592,-0.67 -0.888,-1.59 -0.888,-2.76l0,-0.21c0,-0.72 0.132,-1.36 0.396,-1.92c0.264,-0.56 0.643,-1 1.135,-1.31c0.497,-0.31 1.082,-0.46 1.757,-0.46c0.829,0 1.517,0.25 2.064,0.74c0.552,0.5 0.846,1.14 0.882,1.94l-1.196,0c-0.037,-0.48 -0.219,-0.87 -0.547,-1.18c-0.324,-0.31 -0.725,-0.46 -1.203,-0.46c-0.643,0 -1.142,0.23 -1.497,0.69c-0.351,0.46 -0.527,1.13 -0.527,2.01l0,0.24c0,0.85 0.176,1.5 0.527,1.96c0.351,0.46 0.852,0.69 1.504,0.69zm6.077,-8.29l0,1.79l1.381,0l0,0.98l-1.381,0l0,4.59c0,0.29 0.061,0.52 0.184,0.67c0.123,0.14 0.333,0.22 0.629,0.22c0.146,0 0.347,-0.03 0.602,-0.09l0,1.03c-0.333,0.09 -0.656,0.14 -0.971,0.14c-0.565,0 -0.991,-0.17 -1.278,-0.52c-0.287,-0.34 -0.431,-0.82 -0.431,-1.45l0,-4.59l-1.347,0l0,-0.98l1.347,0l0,-1.79l1.265,0z"/>
  <path id="svg_41" fill="#8794BA" d="m741.968,1905.1l0,3.9l-1.313,0l0,-9.95l3.671,0c1.089,0 1.942,0.27 2.557,0.83c0.62,0.56 0.929,1.29 0.929,2.21c0,0.97 -0.303,1.71 -0.909,2.23c-0.601,0.52 -1.465,0.78 -2.591,0.78l-2.344,0zm0,-1.07l2.358,0c0.702,0 1.24,-0.16 1.613,-0.49c0.374,-0.33 0.561,-0.81 0.561,-1.44c0,-0.59 -0.187,-1.06 -0.561,-1.42c-0.373,-0.35 -0.886,-0.54 -1.538,-0.55l-2.433,0l0,3.9zm10.896,-1.29c-0.191,-0.03 -0.399,-0.05 -0.622,-0.05c-0.829,0 -1.392,0.35 -1.688,1.06l0,5.25l-1.265,0l0,-7.4l1.231,0l0.02,0.86c0.415,-0.66 1.003,-0.99 1.764,-0.99c0.246,0 0.433,0.03 0.56,0.09l0,1.18zm2.543,6.26l-1.264,0l0,-7.4l1.264,0l0,7.4zm-1.367,-9.36c0,-0.2 0.062,-0.38 0.185,-0.52c0.127,-0.14 0.314,-0.21 0.56,-0.21c0.246,0 0.433,0.07 0.561,0.21c0.127,0.14 0.191,0.32 0.191,0.52c0,0.21 -0.064,0.38 -0.191,0.51c-0.128,0.14 -0.315,0.21 -0.561,0.21c-0.246,0 -0.433,-0.07 -0.56,-0.21c-0.123,-0.13 -0.185,-0.3 -0.185,-0.51zm6.364,8.46c0.451,0 0.846,-0.13 1.183,-0.41c0.337,-0.27 0.524,-0.61 0.56,-1.02l1.197,0c-0.023,0.42 -0.169,0.83 -0.438,1.21c-0.269,0.38 -0.629,0.69 -1.08,0.91c-0.446,0.23 -0.92,0.35 -1.422,0.35c-1.007,0 -1.809,-0.34 -2.406,-1.01c-0.592,-0.67 -0.889,-1.59 -0.889,-2.76l0,-0.21c0,-0.72 0.133,-1.36 0.397,-1.92c0.264,-0.56 0.642,-1 1.135,-1.31c0.496,-0.31 1.082,-0.46 1.756,-0.46c0.83,0 1.518,0.25 2.065,0.74c0.551,0.5 0.845,1.14 0.882,1.94l-1.197,0c-0.036,-0.48 -0.218,-0.87 -0.546,-1.18c-0.324,-0.31 -0.725,-0.46 -1.204,-0.46c-0.642,0 -1.141,0.23 -1.497,0.69c-0.351,0.46 -0.526,1.13 -0.526,2.01l0,0.24c0,0.85 0.175,1.5 0.526,1.96c0.351,0.46 0.853,0.69 1.504,0.69zm5.736,0.9l-1.265,0l0,-7.4l1.265,0l0,7.4zm-1.368,-9.36c0,-0.2 0.062,-0.38 0.185,-0.52c0.128,-0.14 0.314,-0.21 0.561,-0.21c0.246,0 0.433,0.07 0.56,0.21c0.128,0.14 0.192,0.32 0.192,0.52c0,0.21 -0.064,0.38 -0.192,0.51c-0.127,0.14 -0.314,0.21 -0.56,0.21c-0.247,0 -0.433,-0.07 -0.561,-0.21c-0.123,-0.13 -0.185,-0.3 -0.185,-0.51zm4.594,1.96l0.041,0.93c0.565,-0.71 1.304,-1.06 2.215,-1.06c1.563,0 2.352,0.88 2.365,2.64l0,4.89l-1.264,0l0,-4.89c-0.005,-0.54 -0.128,-0.93 -0.369,-1.19c-0.237,-0.25 -0.609,-0.38 -1.115,-0.38c-0.41,0 -0.77,0.11 -1.08,0.33c-0.31,0.22 -0.551,0.5 -0.724,0.86l0,5.27l-1.265,0l0,-7.4l1.196,0zm6.228,3.64c0,-1.15 0.266,-2.07 0.8,-2.75c0.533,-0.68 1.239,-1.02 2.119,-1.02c0.902,0 1.606,0.32 2.112,0.95l0.062,-0.82l1.155,0l0,7.22c0,0.96 -0.285,1.71 -0.855,2.26c-0.565,0.56 -1.326,0.83 -2.283,0.83c-0.533,0 -1.055,-0.11 -1.565,-0.34c-0.511,-0.23 -0.9,-0.54 -1.169,-0.94l0.656,-0.75c0.542,0.66 1.205,1 1.989,1c0.615,0 1.094,-0.17 1.436,-0.52c0.346,-0.35 0.519,-0.83 0.519,-1.46l0,-0.64c-0.506,0.59 -1.196,0.88 -2.071,0.88c-0.866,0 -1.568,-0.35 -2.105,-1.05c-0.534,-0.7 -0.8,-1.65 -0.8,-2.85zm1.271,0.14c0,0.84 0.171,1.49 0.513,1.97c0.342,0.48 0.82,0.71 1.435,0.71c0.798,0 1.384,-0.36 1.757,-1.08l0,-3.38c-0.387,-0.71 -0.968,-1.06 -1.743,-1.06c-0.615,0 -1.096,0.24 -1.442,0.72c-0.347,0.48 -0.52,1.18 -0.52,2.12zm11.874,-0.28l0,3.9l-1.312,0l0,-9.95l3.671,0c1.089,0 1.941,0.27 2.556,0.83c0.62,0.56 0.93,1.29 0.93,2.21c0,0.97 -0.303,1.71 -0.909,2.23c-0.602,0.52 -1.465,0.78 -2.591,0.78l-2.345,0zm0,-1.07l2.359,0c0.701,0 1.239,-0.16 1.613,-0.49c0.374,-0.33 0.56,-0.81 0.56,-1.44c0,-0.59 -0.186,-1.06 -0.56,-1.42c-0.374,-0.35 -0.886,-0.54 -1.538,-0.55l-2.434,0l0,3.9zm8.696,4.97l-1.265,0l0,-10.5l1.265,0l0,10.5zm6.596,0c-0.073,-0.15 -0.132,-0.41 -0.177,-0.78c-0.588,0.61 -1.29,0.92 -2.106,0.92c-0.729,0 -1.328,-0.21 -1.798,-0.62c-0.465,-0.41 -0.697,-0.94 -0.697,-1.57c0,-0.77 0.292,-1.37 0.875,-1.79c0.588,-0.43 1.413,-0.64 2.475,-0.64l1.23,0l0,-0.59c0,-0.44 -0.132,-0.79 -0.396,-1.05c-0.265,-0.26 -0.654,-0.39 -1.169,-0.39c-0.452,0 -0.83,0.11 -1.135,0.34c-0.306,0.23 -0.458,0.5 -0.458,0.82l-1.272,0c0,-0.36 0.13,-0.72 0.39,-1.06c0.264,-0.35 0.62,-0.62 1.066,-0.82c0.452,-0.2 0.946,-0.3 1.484,-0.3c0.852,0 1.52,0.21 2.003,0.64c0.483,0.42 0.733,1.01 0.752,1.76l0,3.4c0,0.68 0.086,1.22 0.259,1.62l0,0.11l-1.326,0zm-2.098,-0.96c0.396,0 0.772,-0.11 1.128,-0.31c0.355,-0.21 0.613,-0.47 0.772,-0.8l0,-1.52l-0.991,0c-1.55,0 -2.324,0.45 -2.324,1.36c0,0.4 0.132,0.71 0.396,0.93c0.264,0.22 0.604,0.34 1.019,0.34zm6.343,-6.44l0.041,0.93c0.565,-0.71 1.304,-1.06 2.215,-1.06c1.563,0 2.352,0.88 2.365,2.64l0,4.89l-1.264,0l0,-4.89c-0.005,-0.54 -0.128,-0.93 -0.369,-1.19c-0.237,-0.25 -0.609,-0.38 -1.115,-0.38c-0.41,0 -0.77,0.11 -1.08,0.33c-0.31,0.22 -0.551,0.5 -0.724,0.86l0,5.27l-1.265,0l0,-7.4l1.196,0zm10.835,5.44c0,-0.34 -0.13,-0.61 -0.389,-0.79c-0.256,-0.2 -0.704,-0.36 -1.347,-0.5c-0.638,-0.13 -1.146,-0.3 -1.524,-0.49c-0.374,-0.19 -0.652,-0.42 -0.834,-0.68c-0.178,-0.27 -0.267,-0.58 -0.267,-0.95c0,-0.6 0.255,-1.12 0.766,-1.53c0.515,-0.42 1.171,-0.63 1.968,-0.63c0.839,0 1.518,0.21 2.037,0.65c0.525,0.43 0.787,0.98 0.787,1.66l-1.272,0c0,-0.35 -0.148,-0.65 -0.444,-0.9c-0.292,-0.25 -0.661,-0.37 -1.108,-0.37c-0.46,0 -0.82,0.1 -1.08,0.3c-0.259,0.2 -0.389,0.46 -0.389,0.78c0,0.31 0.12,0.54 0.362,0.69c0.241,0.16 0.677,0.31 1.306,0.45c0.633,0.14 1.146,0.31 1.538,0.5c0.392,0.2 0.681,0.44 0.868,0.71c0.191,0.28 0.287,0.61 0.287,1.01c0,0.66 -0.264,1.19 -0.793,1.59c-0.529,0.4 -1.215,0.6 -2.058,0.6c-0.592,0 -1.116,-0.11 -1.572,-0.32c-0.456,-0.21 -0.813,-0.5 -1.073,-0.87c-0.255,-0.38 -0.383,-0.79 -0.383,-1.23l1.265,0c0.023,0.43 0.191,0.76 0.506,1.02c0.319,0.24 0.738,0.36 1.257,0.36c0.479,0 0.862,-0.09 1.149,-0.28c0.291,-0.2 0.437,-0.46 0.437,-0.78z"/>
  <path id="svg_42" fill="#8794BA" d="m864.145,1904.6l-4.177,0l0,4.4l-1.313,0l0,-9.95l6.166,0l0,1.08l-4.853,0l0,3.4l4.177,0l0,1.07zm6.583,1.8l-4.17,0l-0.937,2.6l-1.353,0l3.8,-9.95l1.149,0l3.807,9.95l-1.346,0l-0.95,-2.6zm-3.774,-1.08l3.384,0l-1.695,-4.65l-1.689,4.65zm14.93,-0.98c0,0.97 -0.153,1.8 -0.458,2.49c-0.306,0.7 -0.734,1.24 -1.285,1.63l1.777,1.39l-0.896,0.83l-2.098,-1.67c-0.328,0.09 -0.675,0.13 -1.039,0.13c-0.784,0 -1.479,-0.19 -2.085,-0.58c-0.606,-0.38 -1.078,-0.93 -1.415,-1.64c-0.333,-0.72 -0.504,-1.55 -0.513,-2.49l0,-0.71c0,-0.96 0.166,-1.81 0.499,-2.54c0.333,-0.73 0.802,-1.29 1.408,-1.68c0.611,-0.39 1.308,-0.59 2.092,-0.59c0.802,0 1.506,0.19 2.112,0.58c0.611,0.39 1.08,0.95 1.409,1.68c0.328,0.72 0.492,1.57 0.492,2.54l0,0.63zm-1.313,-0.64c0,-1.17 -0.234,-2.07 -0.704,-2.7c-0.465,-0.64 -1.13,-0.96 -1.996,-0.96c-0.825,0 -1.476,0.31 -1.955,0.95c-0.474,0.63 -0.718,1.5 -0.731,2.62l0,0.73c0,1.14 0.237,2.04 0.711,2.7c0.478,0.65 1.141,0.98 1.989,0.98c0.847,0 1.504,-0.31 1.969,-0.92c0.464,-0.62 0.704,-1.51 0.717,-2.66l0,-0.74z"/>
  <path id="svg_43" fill="#8794BA" d="m920.655,1909l0,-9.95l3.254,0c1.08,0 1.891,0.22 2.434,0.67c0.547,0.44 0.82,1.1 0.82,1.98c0,0.46 -0.132,0.88 -0.396,1.24c-0.265,0.35 -0.625,0.63 -1.08,0.82c0.537,0.15 0.961,0.44 1.271,0.86c0.314,0.42 0.472,0.93 0.472,1.51c0,0.89 -0.29,1.59 -0.868,2.1c-0.579,0.51 -1.397,0.77 -2.455,0.77l-3.452,0zm1.313,-4.66l0,3.59l2.167,0c0.61,0 1.091,-0.16 1.442,-0.47c0.356,-0.32 0.533,-0.76 0.533,-1.32c0,-1.2 -0.651,-1.8 -1.955,-1.8l-2.187,0zm0,-1.05l1.982,0c0.574,0 1.032,-0.14 1.374,-0.43c0.347,-0.29 0.52,-0.68 0.52,-1.17c0,-0.54 -0.16,-0.94 -0.479,-1.19c-0.319,-0.25 -0.804,-0.37 -1.456,-0.37l-1.941,0l0,3.16zm8.586,5.71l-1.265,0l0,-10.5l1.265,0l0,10.5zm1.695,-3.77c0,-0.72 0.141,-1.37 0.424,-1.95c0.287,-0.58 0.683,-1.03 1.189,-1.34c0.511,-0.32 1.092,-0.47 1.743,-0.47c1.008,0 1.821,0.35 2.441,1.04c0.624,0.7 0.936,1.63 0.936,2.78l0,0.09c0,0.72 -0.139,1.37 -0.417,1.95c-0.273,0.56 -0.667,1.01 -1.182,1.33c-0.511,0.32 -1.098,0.48 -1.764,0.48c-1.002,0 -1.816,-0.35 -2.44,-1.05c-0.62,-0.7 -0.93,-1.62 -0.93,-2.77l0,-0.09zm1.272,0.15c0,0.82 0.189,1.48 0.567,1.98c0.383,0.5 0.893,0.74 1.531,0.74c0.643,0 1.153,-0.25 1.531,-0.75c0.379,-0.5 0.568,-1.21 0.568,-2.12c0,-0.81 -0.194,-1.46 -0.581,-1.97c-0.383,-0.5 -0.894,-0.75 -1.532,-0.75c-0.624,0 -1.127,0.24 -1.51,0.74c-0.383,0.5 -0.574,1.21 -0.574,2.13zm6.747,-0.14c0,-1.15 0.266,-2.07 0.799,-2.75c0.534,-0.68 1.24,-1.02 2.12,-1.02c0.902,0 1.606,0.32 2.112,0.95l0.061,-0.82l1.156,0l0,7.22c0,0.96 -0.285,1.71 -0.855,2.26c-0.565,0.56 -1.326,0.83 -2.283,0.83c-0.533,0 -1.055,-0.11 -1.566,-0.34c-0.51,-0.23 -0.9,-0.54 -1.168,-0.94l0.656,-0.75c0.542,0.66 1.205,1 1.989,1c0.615,0 1.094,-0.17 1.436,-0.52c0.346,-0.35 0.519,-0.83 0.519,-1.46l0,-0.64c-0.506,0.59 -1.196,0.88 -2.071,0.88c-0.866,0 -1.568,-0.35 -2.106,-1.05c-0.533,-0.7 -0.799,-1.65 -0.799,-2.85zm1.271,0.14c0,0.84 0.171,1.49 0.513,1.97c0.342,0.48 0.82,0.71 1.435,0.71c0.798,0 1.383,-0.36 1.757,-1.08l0,-3.38c-0.387,-0.71 -0.968,-1.06 -1.743,-1.06c-0.615,0 -1.096,0.24 -1.442,0.72c-0.347,0.48 -0.52,1.18 -0.52,2.12z"/>
  <path id="svg_55" fill="#8794BA" d="m1258.5,1901.67l-2.5,0l0,3.33l2.5,0l0,10l4.17,0l0,-10l3,0l0.33,-3.33l-3.33,0l0,-1.42c0,-0.75 0.16,-1.08 0.91,-1.08l2.42,0l0,-4.17l-3.17,0c-3,0 -4.33,1.33 -4.33,3.83l0,2.84z"/>
  <path id="svg_56" fill="#8794BA" d="m1313.74,1915c9.29,0 14.36,-7.69 14.36,-14.37c0,-0.21 0,-0.43 -0.01,-0.65c0.99,-0.71 1.84,-1.6 2.52,-2.61c-0.91,0.4 -1.88,0.67 -2.9,0.79c1.04,-0.62 1.84,-1.61 2.22,-2.79c-0.98,0.58 -2.06,1 -3.21,1.23c-0.92,-0.99 -2.23,-1.6 -3.68,-1.6c-2.79,0 -5.05,2.26 -5.05,5.05c0,0.39 0.04,0.78 0.13,1.15c-4.2,-0.21 -7.92,-2.22 -10.41,-5.28c-0.43,0.75 -0.68,1.62 -0.68,2.54c0,1.75 0.89,3.3 2.25,4.21c-0.83,-0.03 -1.61,-0.26 -2.29,-0.64c0,0.02 0,0.05 0,0.07c0,2.44 1.74,4.48 4.05,4.95c-0.43,0.11 -0.87,0.17 -1.33,0.17c-0.33,0 -0.64,-0.03 -0.95,-0.09c0.64,2.01 2.5,3.47 4.71,3.51c-1.72,1.36 -3.9,2.16 -6.27,2.16c-0.4,0 -0.8,-0.02 -1.2,-0.07c2.23,1.43 4.89,2.27 7.74,2.27z"/>
  <path id="svg_57" fill="#8794BA" d="m1380.61,1896.83c2.67,0 3,0 4.08,0.09c2.75,0.08 4,1.41 4.09,4.08c0.08,1.08 0.08,1.33 0.08,4c0,2.67 0,3 -0.08,4c-0.09,2.67 -1.42,4 -4.09,4.08c-1.08,0.09 -1.33,0.09 -4.08,0.09c-2.67,0 -3,0 -4,-0.09c-2.75,-0.08 -4,-1.41 -4.08,-4.08c-0.09,-1.08 -0.09,-1.33 -0.09,-4c0,-2.67 0,-3 0.09,-4c0.08,-2.67 1.41,-4 4.08,-4.08c1,-0.09 1.33,-0.09 4,-0.09zm0,-1.83c-2.75,0 -3.08,0 -4.08,0.08c-3.67,0.17 -5.67,2.17 -5.84,5.84c-0.08,1 -0.08,1.33 -0.08,4.08c0,2.75 0,3.08 0.08,4.08c0.17,3.67 2.17,5.67 5.84,5.84c1,0.08 1.33,0.08 4.08,0.08c2.75,0 3.08,0 4.08,-0.08c3.67,-0.17 5.67,-2.17 5.84,-5.84c0.08,-1 0.08,-1.33 0.08,-4.08c0,-2.75 0,-3.08 -0.08,-4.08c-0.17,-3.67 -2.17,-5.67 -5.84,-5.84c-1,-0.08 -1.33,-0.08 -4.08,-0.08zm0,4.83c-2.83,0 -5.17,2.34 -5.17,5.17c0,2.83 2.34,5.17 5.17,5.17c2.83,0 5.17,-2.34 5.17,-5.17c0,-2.83 -2.34,-5.17 -5.17,-5.17zm0,8.5c-1.83,0 -3.33,-1.5 -3.33,-3.33c0,-1.83 1.5,-3.33 3.33,-3.33c1.83,0 3.33,1.5 3.33,3.33c0,1.83 -1.5,3.33 -3.33,3.33zm5.33,-9.83c-0.66,0 -1.16,0.5 -1.16,1.17c0,0.66 0.5,1.16 1.16,1.16c0.67,0 1.17,-0.5 1.17,-1.16c0,-0.67 -0.5,-1.17 -1.17,-1.17z"/>
 </g>
</svg>